<svg width="50" height="50" viewBox="0 0 50 50" fill="none" xmlns="http://www.w3.org/2000/svg">
  <defs>
    <linearGradient id="logoGradient" x1="0%" y1="0%" x2="100%" y2="100%">
      <stop offset="0%" stop-color="#4158D0" />
      <stop offset="50%" stop-color="#C850C0" />
      <stop offset="100%" stop-color="#FFCC70" />
    </linearGradient>
  </defs>
  <path d="M25 5C13.9543 5 5 13.9543 5 25C5 36.0457 13.9543 45 25 45C36.0457 45 45 36.0457 45 25C45 13.9543 36.0457 5 25 5ZM25 10C33.2843 10 40 16.7157 40 25C40 33.2843 33.2843 40 25 40C16.7157 40 10 33.2843 10 25C10 16.7157 16.7157 10 25 10Z" fill="url(#logoGradient)"/>
  <path d="M20 20L30 30M30 20L20 30" stroke="url(#logoGradient)" stroke-width="3" stroke-linecap="round"/>
  <circle cx="25" cy="25" r="3" fill="url(#logoGradient)"/>
</svg>