<svg width="300" height="300" viewBox="0 0 300 300" fill="none" xmlns="http://www.w3.org/2000/svg">
  <defs>
    <linearGradient id="profileGradient" x1="0%" y1="0%" x2="100%" y2="100%">
      <stop offset="0%" stop-color="#4158D0" />
      <stop offset="50%" stop-color="#C850C0" />
      <stop offset="100%" stop-color="#FFCC70" />
    </linearGradient>
    <clipPath id="circleClip">
      <circle cx="150" cy="150" r="140" />
    </clipPath>
  </defs>
  
  <!-- Background Circle -->
  <circle cx="150" cy="150" r="145" fill="url(#profileGradient)" />
  <circle cx="150" cy="150" r="140" fill="#1A1A2E" stroke="url(#profileGradient)" stroke-width="3" />
  
  <!-- Abstract Profile Silhouette -->
  <g clip-path="url(#circleClip)">
    <!-- Head -->
    <circle cx="150" cy="120" r="60" fill="#333" />
    
    <!-- Body -->
    <path d="M90 280C90 230 210 230 210 280V350H90V280Z" fill="#333" />
    
    <!-- Abstract Face Elements -->
    <rect x="130" y="110" width="40" height="10" rx="5" fill="url(#profileGradient)" />
    <circle cx="130" cy="90" r="8" fill="url(#profileGradient)" />
    <circle cx="170" cy="90" r="8" fill="url(#profileGradient)" />
    
    <!-- Abstract Design Elements -->
    <path d="M110 160C110 160 130 180 150 160C170 180 190 160 190 160" stroke="url(#profileGradient)" stroke-width="3" stroke-linecap="round" />
    
    <!-- Abstract Pattern -->
    <path d="M70 200L230 200M70 220L230 220M70 240L230 240" stroke="url(#profileGradient)" stroke-width="2" stroke-dasharray="10 5" />
  </g>
  
  <!-- Border -->
  <circle cx="150" cy="150" r="140" stroke="url(#profileGradient)" stroke-width="3" fill="none" />
</svg>