<svg width="0" height="0" class="hidden">
  <!-- HTML Icon -->
  <symbol id="icon-html" viewBox="0 0 24 24">
    <path fill="#E44D26" d="M1.5 0h21l-1.91 21.563L11.977 24l-8.564-2.438L1.5 0zm7.031 9.75l-.232-2.718 10.059.003.23-2.622L5.412 4.41l.698 8.01h9.126l-.326 3.426-2.91.804-2.955-.81-.188-2.11H6.248l.33 4.171L12 19.351l5.379-1.443.744-8.157H8.531z"/>
  </symbol>
  
  <!-- CSS Icon -->
  <symbol id="icon-css" viewBox="0 0 24 24">
    <path fill="#1572B6" d="M1.5 0h21l-1.91 21.563L11.977 24l-8.565-2.438L1.5 0zm17.09 4.413L5.41 4.41l.213 2.622 10.125.002-.255 2.716h-6.64l.24 2.573h6.182l-.366 3.523-2.91.804-2.956-.81-.188-2.11h-2.61l.29 3.855L12 19.288l5.373-1.53L18.59 4.414v-.001z"/>
  </symbol>
  
  <!-- JavaScript Icon -->
  <symbol id="icon-javascript" viewBox="0 0 24 24">
    <path fill="#F7DF1E" d="M0 0h24v24H0V0zm22.034 18.276c-.175-1.095-.888-2.015-3.003-2.873-.736-.345-1.554-.585-1.797-1.14-.091-.33-.105-.51-.046-.705.15-.646.915-.84 1.515-.66.39.12.75.42.976.9 1.034-.676 1.034-.676 1.755-1.125-.27-.42-.404-.601-.586-.78-.63-.705-1.469-1.065-2.834-1.034l-.705.089c-.676.165-1.32.525-1.71 1.005-1.14 1.291-.811 3.541.569 4.471 1.365 1.02 3.361 1.244 3.616 2.205.24 1.17-.87 1.545-1.966 1.41-.811-.18-1.26-.586-1.755-1.336l-1.83 1.051c.21.48.45.689.81 1.109 1.74 1.756 6.09 1.666 6.871-1.004.029-.09.24-.705.074-1.65l.046.067zm-8.983-7.245h-2.248c0 1.938-.009 3.864-.009 5.805 0 1.232.063 2.363-.138 2.711-.33.689-1.18.601-1.566.48-.396-.196-.597-.466-.83-.855-.063-.105-.11-.196-.127-.196l-1.825 1.125c.305.63.75 1.172 1.324 1.517.855.51 2.004.675 3.207.405.783-.226 1.458-.691 1.811-1.411.51-.93.402-2.07.397-3.346.012-2.054 0-4.109 0-6.179l.004-.056z"/>
  </symbol>
  
  <!-- React Icon -->
  <symbol id="icon-react" viewBox="0 0 24 24">
    <path fill="#61DAFB" d="M14.23 12.004a2.236 2.236 0 0 1-2.235 2.236 2.236 2.236 0 0 1-2.236-2.236 2.236 2.236 0 0 1 2.235-2.236 2.236 2.236 0 0 1 2.236 2.236zm2.648-10.69c-1.346 0-3.107.96-4.888 2.622-1.78-1.653-3.542-2.602-4.887-2.602-.41 0-.783.093-1.106.278-1.375.793-1.683 3.264-.973 6.365C1.98 8.917 0 10.42 0 12.004c0 1.59 1.99 3.097 5.043 4.03-.704 3.113-.39 5.588.988 6.38.32.187.69.275 1.102.275 1.345 0 3.107-.96 4.888-2.624 1.78 1.654 3.542 2.603 4.887 2.603.41 0 .783-.09 1.106-.275 1.374-.792 1.683-3.263.973-6.365C22.02 15.096 24 13.59 24 12.004c0-1.59-1.99-3.097-5.043-4.032.704-3.11.39-5.587-.988-6.38-.318-.184-.688-.277-1.092-.278zm-.005 1.09v.006c.225 0 .406.044.558.127.666.382.955 1.835.73 3.704-.054.46-.142.945-.25 1.44-.96-.236-2.006-.417-3.107-.534-.66-.905-1.345-1.727-2.035-2.447 1.592-1.48 3.087-2.292 4.105-2.295zm-9.77.02c1.012 0 2.514.808 4.11 2.28-.686.72-1.37 1.537-2.02 2.442-1.107.117-2.154.298-3.113.538-.112-.49-.195-.964-.254-1.42-.23-1.868.054-3.32.714-3.707.19-.09.4-.127.563-.132zm4.882 3.05c.455.468.91.992 1.36 1.564-.44-.02-.89-.034-1.345-.034-.46 0-.915.01-1.36.034.44-.572.895-1.096 1.345-1.565zM12 8.1c.74 0 1.477.034 2.202.093.406.582.802 1.203 1.183 1.86.372.64.71 1.29 1.018 1.946-.308.655-.646 1.31-1.013 1.95-.38.66-.773 1.288-1.18 1.87-.728.063-1.466.098-2.21.098-.74 0-1.477-.035-2.202-.093-.406-.582-.802-1.204-1.183-1.86-.372-.64-.71-1.29-1.018-1.946.303-.657.646-1.313 1.013-1.954.38-.66.773-1.286 1.18-1.868.728-.064 1.466-.098 2.21-.098zm-3.635.254c-.24.377-.48.763-.704 1.16-.225.39-.435.782-.635 1.174-.265-.656-.49-1.31-.676-1.947.64-.15 1.315-.283 2.015-.386zm7.26 0c.695.103 1.365.23 2.006.387-.18.632-.405 1.282-.66 1.933-.2-.39-.41-.783-.64-1.174-.225-.392-.465-.774-.705-1.146zm3.063.675c.484.15.944.317 1.375.498 1.732.74 2.852 1.708 2.852 2.476-.005.768-1.125 1.74-2.857 2.475-.42.18-.88.342-1.355.493-.28-.958-.646-1.956-1.1-2.98.45-1.017.81-2.01 1.085-2.964zm-13.395.004c.278.96.645 1.957 1.1 2.98-.45 1.017-.812 2.01-1.086 2.964-.484-.15-.944-.318-1.37-.5-1.732-.737-2.852-1.706-2.852-2.474 0-.768 1.12-1.742 2.852-2.476.42-.18.88-.342 1.356-.494zm11.678 4.28c.265.657.49 1.312.676 1.948-.64.157-1.316.29-2.016.39.24-.375.48-.762.705-1.158.225-.39.435-.788.636-1.18zm-9.945.02c.2.392.41.783.64 1.175.23.39.465.772.705 1.143-.695-.102-1.365-.23-2.006-.386.18-.63.406-1.282.66-1.933zM17.92 16.32c.112.493.2.968.254 1.423.23 1.868-.054 3.32-.714 3.708-.147.09-.338.128-.563.128-1.012 0-2.514-.807-4.11-2.28.686-.72 1.37-1.536 2.02-2.44 1.107-.118 2.154-.3 3.113-.54zm-11.83.01c.96.234 2.006.415 3.107.532.66.905 1.345 1.727 2.035 2.446-1.595 1.483-3.092 2.295-4.11 2.295-.22-.005-.406-.05-.553-.132-.666-.38-.955-1.834-.73-3.703.054-.46.142-.944.25-1.438zm4.56.64c.44.02.89.034 1.345.034.46 0 .915-.01 1.36-.034-.44.572-.895 1.095-1.345 1.565-.455-.47-.91-.993-1.36-1.565z"/>
  </symbol>
  
  <!-- Node.js Icon -->
  <symbol id="icon-nodejs" viewBox="0 0 24 24">
    <path fill="#539E43" d="M12 1.85c-.27 0-.55.07-.78.2l-7.44 4.3c-.48.28-.78.8-.78 1.36v8.58c0 .56.3 1.08.78 1.36l1.95 1.12c.95.46 1.27.47 1.7.47 1.38 0 2.17-.84 2.17-2.3V7.7c0-.12-.1-.22-.22-.22h-.93c-.13 0-.23.1-.23.22v8.56c0 .64-.67 1.3-1.77.75L3.43 15.9c-.05-.03-.1-.08-.1-.14V6.5c0-.06.04-.12.1-.14l7.45-4.3c.05-.03.12-.03.17 0l7.44 4.3c.06.02.1.08.1.14v9.26c0 .06-.04.12-.1.14l-7.44 4.3c-.05.03-.12.03-.17 0l-1.88-1.14c-.08-.04-.18-.04-.25 0-.7.4-1.3.6-2.04.6-.7 0-1.7-.18-1.7-1.25 0-.54.24-1.3 1.7-1.3.45 0 .83.1 1.1.25.1.05.2.05.28-.03l2.2-1.3c.1-.06.16-.18.13-.3-.26-.65-1.2-1.48-2.92-1.48-1.75 0-3.53.94-3.53 2.5 0 1.7 1.3 2.68 3.65 2.68.87 0 1.56-.2 2.1-.55l.04-.02 1.78 1.03c.1.06.22.06.32 0l7.44-4.3c.06-.03.1-.1.1-.16V6.5c0-.06-.04-.12-.1-.14l-7.44-4.3c-.23-.13-.5-.2-.78-.2zm2.34 4.95c-1.98 0-3.27.9-3.27 2.4 0 1.62 1.26 2.08 3.3 2.28 2.43.24 2.62.6 2.62 1.08 0 .83-.67 1.18-2.23 1.18-1.98 0-2.4-.5-2.55-1.47-.02-.1-.1-.18-.22-.18h-.96c-.12 0-.2.1-.2.22 0 1.3.7 2.83 3.92 2.83 2.3 0 3.65-.92 3.65-2.53 0-1.6-1.08-2.03-3.33-2.33-2.3-.3-2.58-.46-2.58-1 0-.45.2-1.05 1.87-1.05 1.5 0 2.06.32 2.3 1.32.02.1.1.16.2.16h.97c.06 0 .12-.02.16-.07.04-.05.07-.1.06-.17-.17-2.05-1.53-3-.7-3h.02z"/>
  </symbol>
  
  <!-- Python Icon -->
  <symbol id="icon-python" viewBox="0 0 24 24">
    <path fill="#3776AB" d="M14.25.18l.9.2.73.26.59.3.45.32.34.34.25.34.16.33.1.3.04.26.02.2-.01.13V8.5l-.05.63-.13.55-.21.46-.26.38-.3.31-.33.25-.35.19-.35.14-.33.1-.3.07-.26.04-.21.02H8.77l-.69.05-.59.14-.5.22-.41.27-.33.32-.27.35-.2.36-.15.37-.1.35-.07.32-.04.27-.02.21v3.06H3.17l-.21-.03-.28-.07-.32-.12-.35-.18-.36-.26-.36-.36-.35-.46-.32-.59-.28-.73-.21-.88-.14-1.05-.05-1.23.06-1.22.16-1.04.24-.87.32-.71.36-.57.4-.44.42-.33.42-.24.4-.16.36-.1.32-.05.24-.01h.16l.06.01h8.16v-.83H6.18l-.01-2.75-.02-.37.05-.34.11-.31.17-.28.25-.26.31-.23.38-.2.44-.18.51-.15.58-.12.64-.1.71-.06.77-.04.84-.02 1.27.05zm-6.3 1.98l-.23.33-.08.41.08.41.23.34.33.22.41.09.41-.09.33-.22.23-.34.08-.41-.08-.41-.23-.33-.33-.22-.41-.09-.41.09zm13.09 3.95l.28.06.32.12.35.18.36.27.36.35.35.47.32.59.28.73.21.88.14 1.04.05 1.23-.06 1.23-.16 1.04-.24.86-.32.71-.36.57-.4.45-.42.33-.42.24-.4.16-.36.09-.32.05-.24.02-.16-.01h-8.22v.82h5.84l.01 2.76.02.36-.05.34-.11.31-.17.29-.25.25-.31.24-.38.2-.44.17-.51.15-.58.13-.64.09-.71.07-.77.04-.84.01-1.27-.04-1.07-.14-.9-.2-.73-.25-.59-.3-.45-.33-.34-.34-.25-.34-.16-.33-.1-.3-.04-.25-.02-.2.01-.13v-5.34l.05-.64.13-.54.21-.46.26-.38.3-.32.33-.24.35-.2.35-.14.33-.1.3-.06.26-.04.21-.02.13-.01h5.84l.69-.05.59-.14.5-.21.41-.28.33-.32.27-.35.2-.36.15-.36.1-.35.07-.32.04-.28.02-.21V6.07l.01-.13.04-.25.1-.3.16-.33.25-.34.34-.34.45-.33.59-.3.73-.26.9-.2 1.07-.14 1.27-.05 1.27.05 1.07.14zm-2.5 8.22l.23-.33.08-.41-.08-.41-.23-.33-.33-.22-.41-.09-.41.09-.33.22-.23.33-.08.41.08.41.23.33.33.23.41.08.41-.08z"/>
  </symbol>
  
  <!-- PHP Icon -->
  <symbol id="icon-php" viewBox="0 0 24 24">
    <path fill="#777BB4" d="M7.01 10.207h-.944l-.515 2.648h.838c.556 0 .97-.105 1.242-.314.272-.21.455-.559.55-1.049.092-.47.05-.802-.124-.995-.175-.193-.523-.29-1.047-.29zM12 5.688C5.373 5.688 0 8.514 0 12s5.373 6.313 12 6.313S24 15.486 24 12c0-3.486-5.373-6.312-12-6.312zm-3.26 7.451c-.261.25-.575.438-.917.551-.336.108-.765.164-1.285.164H5.357l-.327 1.681H3.652l1.23-6.326h2.65c.797 0 1.378.209 1.744.628.366.418.476 1.002.33 1.752a2.836 2.836 0 0 1-.305.847c-.143.255-.33.49-.561.703zm4.024.715l.543-2.799c.063-.318.039-.536-.068-.651-.107-.116-.336-.174-.687-.174H11.46l-.704 3.625H9.388l1.23-6.327h1.367l-.327 1.682h1.218c.767 0 1.295.134 1.586.401s.378.7.263 1.299l-.572 2.944h-1.389zm7.597-2.265a2.782 2.782 0 0 1-.305.847c-.143.255-.33.49-.561.703a2.44 2.44 0 0 1-.917.551c-.336.108-.765.164-1.286.164h-1.18l-.327 1.682h-1.378l1.23-6.326h2.649c.797 0 1.378.209 1.744.628.366.417.477 1.001.331 1.751zm-2.595-1.382h-.943l-.516 2.648h.838c.557 0 .971-.105 1.242-.314.272-.21.455-.559.551-1.049.092-.47.049-.802-.125-.995s-.524-.29-1.047-.29z"/>
  </symbol>
  
  <!-- MySQL Icon -->
  <symbol id="icon-mysql" viewBox="0 0 24 24">
    <path fill="#4479A1" d="M16.405 5.501c-.115 0-.193.014-.274.033v.013h.014c.054.104.146.18.214.273.054.107.1.214.154.32l.014-.015c.094-.066.14-.172.14-.333-.04-.047-.046-.094-.08-.14-.04-.067-.126-.1-.18-.153zM5.77 18.695h-.927a50.854 50.854 0 00-.27-4.41h-.008l-1.41 4.41H2.45l-1.4-4.41h-.01a72.892 72.892 0 00-.195 4.41H0c.055-1.966.192-3.81.41-5.53h1.15l1.335 4.064h.008l1.347-4.064h1.095c.242 2.015.384 3.86.428 5.53zm4.017-4.08c-.378 2.045-.876 3.533-1.492 4.46-.482.716-1.01 1.073-1.583 1.073-.153 0-.34-.046-.566-.138v-.494c.11.017.24.026.386.026.268 0 .483-.075.647-.222.197-.18.295-.382.295-.605 0-.155-.077-.47-.23-.944L6.23 14.615h.91l.727 2.36c.164.536.233.91.205 1.123.4-1.064.678-2.227.835-3.483zm12.325 4.08h-2.63v-5.53h.885v4.85h1.745zm-3.32.135l-1.016-.5c.09-.076.177-.158.255-.25.433-.506.648-1.258.648-2.253 0-1.83-.718-2.746-2.155-2.746-.704 0-1.254.232-1.65.697-.43.508-.646 1.256-.646 2.245 0 .972.19 1.686.574 2.14.35.41.877.615 1.583.615.264 0 .506-.033.725-.098l1.325.772.36-.622zM15.5 17.588c-.225-.36-.337-.94-.337-1.736 0-1.393.424-2.09 1.27-2.09.443 0 .77.167.977.5.224.362.336.936.336 1.723 0 1.404-.424 2.108-1.27 2.108-.445 0-.77-.167-.978-.5zm-1.658-.425c0 .47-.172.856-.516 1.156-.344.3-.803.45-1.384.45-.543 0-1.064-.172-1.573-.515l.237-.476c.438.22.833.328 1.19.328.332 0 .593-.073.783-.22a.754.754 0 00.3-.615c0-.33-.23-.61-.648-.845-.388-.213-1.163-.657-1.163-.657-.422-.307-.632-.636-.632-1.177 0-.45.157-.81.47-1.085.315-.278.72-.415 1.22-.415.512 0 .98.136 1.4.41l-.213.476a2.726 2.726 0 00-1.064-.23c-.283 0-.502.068-.654.206a.685.685 0 00-.248.524c0 .328.234.61.666.85.393.215 1.187.67 1.187.67.433.305.648.63.648 1.168zm9.382-5.852c-.535-.014-.95.04-1.297.188-.1.04-.26.04-.274.167.055.053.063.14.11.214.08.134.218.313.346.407.14.11.28.216.427.31.26.16.555.255.81.416.145.094.293.213.44.313.073.05.12.14.214.172v-.02c-.046-.06-.06-.147-.105-.214-.067-.067-.134-.127-.2-.193a3.223 3.223 0 00-.695-.675c-.214-.146-.682-.35-.77-.595l-.013-.014c.146-.013.32-.066.46-.106.227-.06.435-.047.67-.106.106-.027.213-.06.32-.094v-.06c-.12-.12-.21-.283-.334-.395a8.867 8.867 0 00-1.104-.823c-.21-.134-.476-.22-.697-.334-.08-.04-.214-.06-.26-.127-.12-.146-.19-.34-.275-.514a17.69 17.69 0 01-.547-1.163c-.12-.262-.193-.523-.34-.763-.69-1.137-1.437-1.826-2.586-2.5-.247-.14-.543-.2-.856-.274-.167-.008-.334-.02-.5-.027-.11-.047-.216-.174-.31-.235-.38-.24-1.364-.76-1.644-.072-.18.434.267.862.422 1.082.115.153.26.328.34.5.047.116.06.235.107.356.106.294.207.622.347.897.073.14.153.287.247.413.054.073.146.107.167.227-.094.136-.1.334-.154.5-.24.757-.146 1.693.194 2.25.107.166.362.534.703.393.3-.12.234-.5.32-.835.02-.08.007-.133.048-.187v.015c.094.188.188.367.274.555.206.328.566.668.867.895.16.12.287.328.487.402v-.02h-.015c-.043-.058-.1-.086-.154-.133a3.445 3.445 0 01-.35-.4 8.76 8.76 0 01-.747-1.218c-.11-.21-.202-.436-.29-.643-.04-.08-.04-.2-.107-.24-.1.146-.247.273-.32.453-.127.288-.14.642-.188 1.01-.027.007-.014 0-.027.014-.214-.052-.287-.274-.367-.46-.2-.475-.233-1.238-.06-1.785.047-.14.247-.582.167-.716-.042-.127-.174-.2-.247-.303a2.478 2.478 0 01-.24-.427c-.16-.374-.24-.788-.414-1.162-.08-.173-.22-.354-.334-.513-.127-.18-.267-.307-.368-.52-.033-.073-.08-.194-.027-.274.014-.054.042-.075.094-.09.088-.072.335.022.422.062.247.1.455.194.662.334.094.066.195.193.315.226h.14c.214.047.455.014.655.073.355.114.675.28.962.46a5.953 5.953 0 012.085 2.286c.08.154.115.295.188.455.14.33.313.663.455.982.14.315.275.636.476.897.1.14.502.213.682.286.133.06.34.115.46.188.23.14.454.3.67.454.11.076.443.243.463.378z"/>
  </symbol>
  
  <!-- Git Icon -->
  <symbol id="icon-git" viewBox="0 0 24 24">
    <path fill="#F05032" d="M23.546 10.93L13.067.452c-.604-.603-1.582-.603-2.188 0L8.708 2.627l2.76 2.76c.645-.215 1.379-.07 1.889.441.516.515.658 1.258.438 1.9l2.658 2.66c.645-.223 1.387-.078 1.9.435.721.72.721 1.884 0 2.604-.719.719-1.881.719-2.6 0-.539-.541-.674-1.337-.404-1.996L12.86 8.955v6.525c.176.086.342.203.488.348.713.721.713 1.883 0 2.6-.719.721-1.889.721-2.609 0-.719-.719-.719-1.879 0-2.598.182-.18.387-.316.605-.406V8.835c-.217-.091-.424-.222-.6-.401-.545-.545-.676-1.342-.396-2.009L7.636 3.7.45 10.881c-.6.605-.6 1.584 0 2.189l10.48 10.477c.604.604 1.582.604 2.186 0l10.43-10.43c.605-.603.605-1.582 0-2.187"/>
  </symbol>
  
  <!-- Docker Icon -->
  <symbol id="icon-docker" viewBox="0 0 24 24">
    <path fill="#2496ED" d="M13.983 11.078h2.119a.186.186 0 00.186-.185V9.006a.186.186 0 00-.186-.186h-2.119a.185.185 0 00-.185.185v1.888c0 .102.083.185.185.185m-2.954-5.43h2.118a.186.186 0 00.186-.186V3.574a.186.186 0 00-.186-.185h-2.118a.185.185 0 00-.185.185v1.888c0 .102.082.185.185.185m0 2.716h2.118a.187.187 0 00.186-.186V6.29a.186.186 0 00-.186-.185h-2.118a.185.185 0 00-.185.185v1.887c0 .102.082.185.185.186m-2.93 0h2.12a.186.186 0 00.184-.186V6.29a.185.185 0 00-.185-.185H8.1a.185.185 0 00-.185.185v1.887c0 .102.083.185.185.186m-2.964 0h2.119a.186.186 0 00.185-.186V6.29a.185.185 0 00-.185-.185H5.136a.186.186 0 00-.186.185v1.887c0 .102.084.185.186.186m5.893 2.715h2.118a.186.186 0 00.186-.185V9.006a.186.186 0 00-.186-.186h-2.118a.185.185 0 00-.185.185v1.888c0 .102.082.185.185.185m-2.93 0h2.12a.185.185 0 00.184-.185V9.006a.185.185 0 00-.184-.186h-2.12a.185.185 0 00-.184.185v1.888c0 .102.083.185.185.185m-2.964 0h2.119a.185.185 0 00.185-.185V9.006a.185.185 0 00-.184-.186h-2.12a.186.186 0 00-.186.186v1.887c0 .102.084.185.186.185m-2.92 0h2.12a.185.185 0 00.184-.185V9.006a.185.185 0 00-.184-.186h-2.12a.185.185 0 00-.184.185v1.888c0 .102.082.185.185.185M23.763 9.89c-.065-.051-.672-.51-1.954-.51-.338.001-.676.03-1.01.087-.248-1.7-1.653-2.53-1.716-2.566l-.344-.199-.226.327c-.284.438-.49.922-.612 1.43-.23.97-.09 1.882.403 2.661-.595.332-1.55.413-1.744.42H.751a.751.751 0 00-.75.748 11.376 11.376 0 00.692 4.062c.545 1.428 1.355 2.48 2.41 3.124 1.18.723 3.1 1.137 5.275 1.137.983.003 1.963-.086 2.93-.266a12.248 12.248 0 003.823-1.389c.98-.567 1.86-1.288 2.61-2.136 1.252-1.418 1.998-2.997 2.553-4.4h.221c1.372 0 2.215-.549 2.68-1.009.309-.293.55-.65.707-1.046l.098-.288Z"/>
  </symbol>
  
  <!-- Figma Icon -->
  <symbol id="icon-figma" viewBox="0 0 24 24">
    <path fill="#F24E1E" d="M15.852 8.981h-4.588V0h4.588c2.476 0 4.49 2.014 4.49 4.49s-2.014 4.491-4.49 4.491zM12.735 7.51h3.117c1.665 0 3.019-1.355 3.019-3.019s-1.355-3.019-3.019-3.019h-3.117V7.51zm0 1.471H8.148c-2.476 0-4.49-2.014-4.49-4.49S5.672 0 8.148 0h4.588v8.981zm-4.587-7.51c-1.665 0-3.019 1.355-3.019 3.019s1.354 3.02 3.019 3.02h3.117V1.471H8.148zm4.587 15.019H8.148c-2.476 0-4.49-2.014-4.49-4.49s2.014-4.49 4.49-4.49h4.588v8.98zM8.148 8.981c-1.665 0-3.019 1.355-3.019 3.019s1.355 3.019 3.019 3.019h3.117V8.981H8.148zM8.172 24c-2.489 0-4.515-2.014-4.515-4.49s2.014-4.49 4.49-4.49h4.588v4.441c0 2.503-2.047 4.539-4.563 4.539zm-.024-7.51a3.023 3.023 0 0 0-3.019 3.019c0 1.665 1.365 3.019 3.044 3.019 1.705 0 3.093-1.376 3.093-3.068v-2.97H8.148zm7.704 0h-.098c-2.476 0-4.49-2.014-4.49-4.49s2.014-4.49 4.49-4.49h.098c2.476 0 4.49 2.014 4.49 4.49s-2.014 4.49-4.49 4.49zm-.097-7.509c-1.665 0-3.019 1.355-3.019 3.019s1.355 3.019 3.019 3.019h.098c1.665 0 3.019-1.355 3.019-3.019s-1.355-3.019-3.019-3.019h-.098z"/>
  </symbol>
  
  <!-- Tailwind CSS Icon -->
  <symbol id="icon-tailwind" viewBox="0 0 24 24">
    <path fill="#06B6D4" d="M12.001,4.8c-3.2,0-5.2,1.6-6,4.8c1.2-1.6,2.6-2.2,4.2-1.8c0.913,0.228,1.565,0.89,2.288,1.624 C13.666,10.618,15.027,12,18.001,12c3.2,0,5.2-1.6,6-4.8c-1.2,1.6-2.6,2.2-4.2,1.8c-0.913-0.228-1.565-0.89-2.288-1.624 C16.337,6.182,14.976,4.8,12.001,4.8z M6.001,12c-3.2,0-5.2,1.6-6,4.8c1.2-1.6,2.6-2.2,4.2-1.8c0.913,0.228,1.565,0.89,2.288,1.624 c1.177,1.194,2.538,2.576,5.512,2.576c3.2,0,5.2-1.6,6-4.8c-1.2,1.6-2.6,2.2-4.2,1.8c-0.913-0.228-1.565-0.89-2.288-1.624 C10.337,13.382,8.976,12,6.001,12z"/>
  </symbol>
  
  <!-- GSAP Icon -->
  <symbol id="icon-gsap" viewBox="0 0 24 24">
    <path fill="#88CE02" d="M16.716 8.716c-2.129 0-2.429 1.378-2.229 3.006l.12.798h4.988c.2-2.249-1.321-3.804-2.879-3.804m-2.129 4.704l-.12.798c-.2 1.229.4 2.249 2.229 2.249.6 0 1.129-.2 1.499-.399.2-.2.4-.2.6 0l.599.399c.2.2.2.399 0 .599-.799.599-1.828.998-2.827.998-2.648 0-4.217-1.199-3.817-4.104l.2-1.328c.4-2.527 1.958-4.026 4.217-4.026 2.428 0 4.576 1.828 4.026 5.412l-.2.399h-6.406v.003zm-5.036-4.704c-2.129 0-2.429 1.378-2.229 3.006l.12.798h4.988c.2-2.249-1.321-3.804-2.879-3.804m-2.129 4.704l-.12.798c-.2 1.229.4 2.249 2.229 2.249.6 0 1.129-.2 1.499-.399.2-.2.4-.2.6 0l.599.399c.2.2.2.399 0 .599-.799.599-1.828.998-2.827.998-2.648 0-4.217-1.199-3.817-4.104l.2-1.328c.4-2.527 1.958-4.026 4.217-4.026 2.428 0 4.576 1.828 4.026 5.412l-.2.399h-6.406v.003zM24 7.588l-.599.399c-.2.2-.4.2-.599 0-.2-.2-.799-.399-1.199-.399-.799 0-1.499.399-1.699 1.198l-.299 1.729v.199l1.899-.599c.2 0 .4.2.4.399l-.2.599c0 .2-.2.399-.4.399l-1.998.599-.799 5.013c0 .2-.2.399-.4.399h-.999c-.2 0-.4-.2-.4-.399l.799-5.013-.999.399c-.2 0-.4-.2-.4-.399l.2-.599c0-.2.2-.399.4-.399l1.199-.399.299-1.729c.4-2.029 1.798-3.227 3.597-3.227.999 0 1.798.399 2.198.798.198.2.198.399-.001.529"/>
  </symbol>
  
  <!-- Three.js Icon -->
  <symbol id="icon-threejs" viewBox="0 0 24 24">
    <path fill="#000000" d="M19.875 6.27c.009.11.025.215.025.33v10.8c0 .115-.016.22-.025.33l-7.87-5.726 7.87-5.734zM12.5 18.13l-7.87-5.726 7.87-5.734 7.87 5.734-7.87 5.726zm-7.875-5.396L12.5 6.87l7.875 5.864-7.875 5.864-7.875-5.864zm7.875-11.87L4.123 6.6l-.998-.726L12.5 0l9.375 5.874-.998.726L12.5.864zm0 22.272l-8.377-5.864.998-.726L12.5 22.41l7.377-5.864.998.726-8.375 5.864z"/>
  </symbol>
</svg>