<svg xmlns="http://www.w3.org/2000/svg" xmlns:xlink="http://www.w3.org/1999/xlink" width="2240" zoomAndPan="magnify" viewBox="0 0 1680 944.999993" height="1260" preserveAspectRatio="xMidYMid meet" version="1.2"><defs><clipPath id="ebbc8af1d3"><path d="M 1508 419 L 1585.191406 419 L 1585.191406 486 L 1508 486 Z M 1508 419 "/></clipPath><clipPath id="b497df4d19"><path d="M 1508 463 L 1585.191406 463 L 1585.191406 530 L 1508 530 Z M 1508 463 "/></clipPath><clipPath id="05089de104"><path d="M 1442 507 L 1585.191406 507 L 1585.191406 574 L 1442 574 Z M 1442 507 "/></clipPath><clipPath id="04b0a84d0a"><path d="M 1287 232.171875 L 1310 232.171875 L 1310 288 L 1287 288 Z M 1287 232.171875 "/></clipPath><clipPath id="002f091fce"><path d="M 1122 430 L 1301 430 L 1301 850.171875 L 1122 850.171875 Z M 1122 430 "/></clipPath><clipPath id="8e1fd72f84"><path d="M 1330 375 L 1585.191406 375 L 1585.191406 442 L 1330 442 Z M 1330 375 "/></clipPath><clipPath id="4313ec1ff4"><path d="M 0 0 L 1140 0 L 1140 945 L 0 945 Z M 0 0 "/></clipPath><clipPath id="5ea06c474c"><path d="M 841.601562 -14.613281 L -301.09375 -14.613281 L -3.164062 956.515625 L 1139.535156 956.515625 Z M 841.601562 -14.613281 "/></clipPath><clipPath id="6cd2fe7bd9"><path d="M 352.507812 0 L 1128 0 L 1128 693.542969 L 352.507812 693.542969 Z M 352.507812 0 "/></clipPath><clipPath id="6dc4781076"><path d="M 831.625 -239.457031 L 352.507812 -239.457031 L 648.492188 693.542969 L 1127.609375 693.542969 Z M 831.625 -239.457031 "/></clipPath><clipPath id="d7209f63e9"><path d="M 0 0 L 599 0 L 599 406.550781 L 0 406.550781 Z M 0 0 "/></clipPath><clipPath id="537588c4e5"><path d="M 302.820312 -526.449219 L -232.558594 -526.449219 L 63.425781 406.550781 L 598.804688 406.550781 Z M 302.820312 -526.449219 "/></clipPath><clipPath id="cba9016a47"><path d="M 675 0 L 1216 0 L 1216 945 L 675 945 Z M 675 0 "/></clipPath><clipPath id="804a7ce105"><path d="M 1215.59375 1115.113281 L 1157.503906 1133.703125 L 675.488281 -372.445312 L 733.578125 -391.035156 Z M 1215.59375 1115.113281 "/></clipPath><clipPath id="b1b5fcec4e"><path d="M 1116.515625 63 L 1502.015625 63 L 1502.015625 183.515625 L 1116.515625 183.515625 Z M 1116.515625 63 "/></clipPath><clipPath id="c222164bd6"><path d="M 1225 7.265625 L 1393 7.265625 L 1393 59 L 1225 59 Z M 1225 7.265625 "/></clipPath></defs><g id="0c024426d3"><rect x="0" width="1680" y="0" height="944.999993" style="fill:#ffffff;fill-opacity:1;stroke:none;"/><rect x="0" width="1680" y="0" height="944.999993" style="fill:#f4f3f3;fill-opacity:1;stroke:none;"/><g clip-rule="nonzero" clip-path="url(#ebbc8af1d3)"><path style=" stroke:none;fill-rule:nonzero;fill:#0045f5;fill-opacity:1;" d="M 1552.214844 485.785156 L 1552.214844 463.746094 C 1558.304688 463.746094 1563.242188 458.804688 1563.242188 452.71875 C 1563.242188 446.632812 1558.304688 441.691406 1552.214844 441.691406 L 1508.132812 441.691406 L 1508.132812 419.648438 L 1552.214844 419.648438 C 1570.453125 419.648438 1585.285156 434.480469 1585.285156 452.71875 C 1585.285156 470.953125 1570.453125 485.785156 1552.214844 485.785156 Z M 1552.214844 485.785156 "/></g><g clip-rule="nonzero" clip-path="url(#b497df4d19)"><path style=" stroke:none;fill-rule:nonzero;fill:#0045f5;fill-opacity:1;" d="M 1552.214844 529.878906 L 1508.132812 529.878906 L 1508.132812 507.839844 L 1552.214844 507.839844 C 1558.304688 507.839844 1563.242188 502.898438 1563.242188 496.8125 C 1563.242188 490.726562 1558.304688 485.785156 1552.214844 485.785156 L 1508.132812 485.785156 L 1508.132812 463.746094 L 1552.214844 463.746094 C 1570.453125 463.746094 1585.285156 478.578125 1585.285156 496.8125 C 1585.285156 515.046875 1570.453125 529.878906 1552.214844 529.878906 Z M 1552.214844 529.878906 "/></g><g clip-rule="nonzero" clip-path="url(#05089de104)"><path style=" stroke:none;fill-rule:nonzero;fill:#0045f5;fill-opacity:1;" d="M 1552.214844 573.960938 L 1442.011719 573.960938 L 1442.011719 551.921875 L 1552.214844 551.921875 C 1558.304688 551.921875 1563.242188 546.980469 1563.242188 540.894531 C 1563.242188 534.808594 1558.304688 529.867188 1552.214844 529.867188 L 1552.214844 507.828125 C 1570.453125 507.828125 1585.285156 522.660156 1585.285156 540.894531 C 1585.285156 559.132812 1570.453125 573.960938 1552.214844 573.960938 Z M 1552.214844 573.960938 "/></g><path style=" stroke:none;fill-rule:nonzero;fill:#0045f5;fill-opacity:1;" d="M 1309.75 507.839844 C 1285.441406 507.839844 1265.667969 488.066406 1265.667969 463.757812 C 1265.667969 439.445312 1285.441406 419.671875 1309.75 419.671875 C 1334.0625 419.671875 1353.832031 439.445312 1353.832031 463.757812 C 1353.832031 488.066406 1334.0625 507.839844 1309.75 507.839844 Z M 1309.75 441.714844 C 1297.601562 441.714844 1287.707031 451.605469 1287.707031 463.757812 C 1287.707031 475.90625 1297.601562 485.796875 1309.75 485.796875 C 1321.898438 485.796875 1331.792969 475.90625 1331.792969 463.757812 C 1331.792969 451.605469 1321.898438 441.714844 1309.75 441.714844 Z M 1309.75 441.714844 "/><path style=" stroke:none;fill-rule:nonzero;fill:#0045f5;fill-opacity:1;" d="M 1342.804688 439.261719 L 1320.765625 439.261719 L 1320.765625 386.59375 L 1298.722656 386.59375 L 1298.722656 439.261719 L 1276.683594 439.261719 L 1276.683594 386.59375 C 1276.683594 374.445312 1286.574219 364.550781 1298.722656 364.550781 L 1320.765625 364.550781 C 1332.914062 364.550781 1342.804688 374.445312 1342.804688 386.59375 Z M 1342.804688 439.261719 "/><path style=" stroke:none;fill-rule:nonzero;fill:#0045f5;fill-opacity:1;" d="M 1320.765625 488.238281 L 1342.804688 488.238281 L 1342.804688 554.890625 L 1320.765625 554.890625 Z M 1320.765625 488.238281 "/><path style=" stroke:none;fill-rule:nonzero;fill:#0045f5;fill-opacity:1;" d="M 1276.683594 488.238281 L 1298.722656 488.238281 L 1298.722656 554.890625 L 1276.683594 554.890625 Z M 1276.683594 488.238281 "/><path style=" stroke:none;fill-rule:nonzero;fill:#0045f5;fill-opacity:1;" d="M 1519.148438 618.046875 L 1453.082031 618.046875 C 1429.046875 618.046875 1405.847656 609.324219 1387.773438 593.492188 L 1380.734375 587.351562 L 1395.246094 570.753906 L 1402.28125 576.910156 C 1416.347656 589.21875 1434.386719 596.003906 1453.082031 596.003906 L 1519.148438 596.003906 C 1525.234375 596.003906 1530.175781 591.0625 1530.175781 584.976562 C 1530.175781 578.890625 1525.234375 573.953125 1519.148438 573.953125 L 1519.148438 551.910156 C 1537.386719 551.910156 1552.214844 566.742188 1552.214844 584.976562 C 1552.214844 603.214844 1537.386719 618.046875 1519.148438 618.046875 Z M 1519.148438 618.046875 "/><path style=" stroke:none;fill-rule:nonzero;fill:#0045f5;fill-opacity:1;" d="M 968.589844 541.535156 L 1200.851562 525.617188 L 1202.359375 547.621094 L 970.097656 563.535156 Z M 968.589844 541.535156 "/><path style=" stroke:none;fill-rule:nonzero;fill:#0045f5;fill-opacity:1;" d="M 1287.707031 419.660156 C 1265.210938 419.660156 1254.605469 418.847656 1153.097656 411.007812 C 1110.253906 407.707031 1051.144531 403.144531 968 396.851562 L 969.664062 374.878906 C 1052.832031 381.160156 1111.949219 385.734375 1154.796875 389.035156 C 1255.535156 396.816406 1266.070312 397.621094 1287.71875 397.621094 L 1287.71875 419.660156 Z M 1287.707031 419.660156 "/><g clip-rule="nonzero" clip-path="url(#04b0a84d0a)"><path style=" stroke:none;fill-rule:nonzero;fill:#0045f5;fill-opacity:1;" d="M 1287.707031 232.304688 L 1309.75 232.304688 L 1309.75 287.414062 L 1287.707031 287.414062 Z M 1287.707031 232.304688 "/></g><path style=" stroke:none;fill-rule:nonzero;fill:#0045f5;fill-opacity:1;" d="M 1152.996094 278.503906 L 1168.582031 262.917969 L 1212.921875 307.257812 L 1197.335938 322.84375 Z M 1152.996094 278.503906 "/><path style=" stroke:none;fill-rule:nonzero;fill:#0045f5;fill-opacity:1;" d="M 1384.265625 307.519531 L 1428.867188 262.917969 L 1444.453125 278.503906 L 1399.851562 323.105469 Z M 1384.265625 307.519531 "/><path style=" stroke:none;fill-rule:nonzero;fill:#0045f5;fill-opacity:1;" d="M 1293.589844 608.65625 L 1287.492188 572.140625 C 1286.597656 566.800781 1282.058594 562.9375 1276.683594 562.9375 C 1270.597656 562.9375 1265.65625 567.875 1265.65625 573.960938 L 1265.65625 578.902344 L 1243.613281 578.902344 L 1243.613281 573.960938 C 1243.613281 555.726562 1258.445312 540.894531 1276.683594 540.894531 C 1292.867188 540.894531 1306.5625 552.507812 1309.234375 568.507812 L 1315.332031 605.023438 Z M 1293.589844 608.65625 "/><g clip-rule="nonzero" clip-path="url(#002f091fce)"><path style=" stroke:none;fill-rule:nonzero;fill:#0045f5;fill-opacity:1;" d="M 1278.46875 850.105469 L 1266.597656 778.867188 L 1227.75 752.976562 C 1211.613281 742.214844 1196.597656 729.730469 1183.105469 715.863281 L 1132.320312 663.664062 C 1126.015625 657.625 1122.382812 649.152344 1122.382812 640.097656 C 1122.382812 621.863281 1137.214844 607.03125 1155.449219 607.03125 C 1162.796875 607.03125 1169.824219 609.472656 1175.738281 614.101562 L 1208.976562 637.246094 L 1177.984375 469.40625 C 1177.890625 468.789062 1177.503906 465.476562 1177.503906 463.757812 C 1177.503906 445.519531 1192.332031 430.6875 1210.570312 430.6875 C 1226.753906 430.6875 1240.453125 442.300781 1243.121094 458.300781 L 1270.652344 604.292969 L 1249 608.382812 L 1221.425781 462.175781 C 1220.484375 456.613281 1215.945312 452.742188 1210.570312 452.742188 C 1204.484375 452.742188 1199.542969 457.679688 1199.542969 463.765625 C 1199.566406 464.570312 1199.75 465.96875 1199.761719 466.046875 L 1240.40625 686.003906 L 1162.683594 631.835938 C 1160.789062 630.378906 1158.488281 629.082031 1155.472656 629.082031 C 1149.386719 629.082031 1144.445312 634.023438 1144.445312 640.109375 C 1144.445312 643.113281 1145.660156 645.921875 1147.871094 648.042969 L 1198.9375 700.515625 C 1211.347656 713.273438 1225.160156 724.757812 1240.003906 734.660156 L 1286.792969 765.847656 L 1300.238281 846.515625 L 1278.492188 850.140625 Z M 1278.46875 850.105469 "/></g><g clip-rule="nonzero" clip-path="url(#8e1fd72f84)"><path style=" stroke:none;fill-rule:nonzero;fill:#0045f5;fill-opacity:1;" d="M 1552.214844 441.703125 L 1552.214844 419.660156 C 1558.304688 419.660156 1563.242188 414.722656 1563.242188 408.636719 C 1563.242188 402.550781 1558.304688 397.609375 1552.214844 397.609375 L 1468.199219 397.609375 C 1451.535156 397.609375 1434.8125 399.269531 1418.488281 402.527344 L 1373.296875 411.570312 C 1361.144531 414 1347.527344 415.960938 1332.847656 417.371094 L 1330.738281 395.429688 C 1344.675781 394.089844 1357.535156 392.246094 1368.960938 389.953125 L 1414.15625 380.910156 C 1431.910156 377.355469 1450.089844 375.554688 1468.199219 375.554688 L 1552.214844 375.554688 C 1570.453125 375.554688 1585.285156 390.386719 1585.285156 408.625 C 1585.285156 426.859375 1570.453125 441.691406 1552.214844 441.691406 Z M 1552.214844 441.703125 "/></g><path style=" stroke:none;fill-rule:nonzero;fill:#0045f5;fill-opacity:1;" d="M 1378.039062 839.148438 L 1366.53125 781.859375 C 1365.410156 776.21875 1364.859375 770.511719 1364.859375 764.851562 C 1364.859375 749.800781 1369.214844 737.800781 1373.84375 725.089844 C 1379.953125 708.238281 1386.902344 689.167969 1386.902344 655.558594 C 1386.902344 638.585938 1385.503906 630.34375 1379.621094 595.636719 L 1375.65625 572.140625 C 1374.761719 566.800781 1370.222656 562.9375 1364.847656 562.9375 C 1359.003906 562.9375 1354.175781 567.5 1353.832031 573.332031 L 1331.835938 572.105469 C 1332.8125 554.601562 1347.300781 540.894531 1364.847656 540.894531 C 1381.03125 540.894531 1394.730469 552.507812 1397.398438 568.507812 L 1401.355469 591.957031 C 1407.335938 627.25 1408.941406 636.738281 1408.941406 655.570312 C 1408.941406 693.0625 1400.964844 714.992188 1394.558594 732.621094 C 1390.269531 744.390625 1386.890625 753.699219 1386.890625 764.851562 C 1386.890625 769.066406 1387.3125 773.34375 1388.140625 777.539062 L 1399.648438 834.792969 L 1378.03125 839.136719 Z M 1378.039062 839.148438 "/><path style=" stroke:none;fill-rule:nonzero;fill:#0045f5;fill-opacity:1;" d="M 1337.683594 608.773438 L 1331.574219 572.140625 C 1330.679688 566.800781 1326.140625 562.9375 1320.765625 562.9375 C 1314.917969 562.9375 1310.09375 567.5 1309.75 573.332031 L 1287.753906 572.105469 C 1288.730469 554.605469 1303.21875 540.894531 1320.765625 540.894531 C 1336.949219 540.894531 1350.648438 552.507812 1353.316406 568.507812 L 1359.425781 605.140625 Z M 1337.683594 608.773438 "/><g clip-rule="nonzero" clip-path="url(#4313ec1ff4)"><g clip-rule="nonzero" clip-path="url(#5ea06c474c)"><path style=" stroke:none;fill-rule:nonzero;fill:#18181c;fill-opacity:1;" d="M -301.09375 -14.613281 L 1140.425781 -14.613281 L 1140.425781 956.515625 L -301.09375 956.515625 Z M -301.09375 -14.613281 "/></g></g><g clip-rule="nonzero" clip-path="url(#6cd2fe7bd9)"><g clip-rule="nonzero" clip-path="url(#6dc4781076)"><path style="fill:none;stroke-width:4;stroke-linecap:butt;stroke-linejoin:miter;stroke:#ffffff;stroke-opacity:1;stroke-miterlimit:4;" d="M 639.031453 0.000322504 L -0.000115802 0.000322504 L 394.774617 1244.406637 L 1033.806185 1244.406637 Z M 639.031453 0.000322504 " transform="matrix(0.749755,0,0,0.749755,352.507899,-239.457273)"/></g></g><g clip-rule="nonzero" clip-path="url(#d7209f63e9)"><g clip-rule="nonzero" clip-path="url(#537588c4e5)"><path style="fill:none;stroke-width:4;stroke-linecap:butt;stroke-linejoin:miter;stroke:#ffffff;stroke-opacity:1;stroke-miterlimit:4;" d="M 714.071243 0.000319324 L -0.000452661 0.000319324 L 394.77428 1244.406634 L 1108.845975 1244.406634 Z M 714.071243 0.000319324 " transform="matrix(0.749755,0,0,0.749755,-232.558254,-526.449458)"/></g></g><g clip-rule="nonzero" clip-path="url(#cba9016a47)"><g clip-rule="nonzero" clip-path="url(#804a7ce105)"><path style=" stroke:none;fill-rule:nonzero;fill:#0045f5;fill-opacity:1;" d="M 1215.59375 1115.113281 L 1157.503906 1133.703125 L 675.476562 -372.484375 L 733.5625 -391.074219 Z M 1215.59375 1115.113281 "/></g></g><g clip-rule="nonzero" clip-path="url(#b1b5fcec4e)"><path style=" stroke:none;fill-rule:nonzero;fill:#020b0a;fill-opacity:1;" d="M 1483.910156 183.488281 L 1134.613281 183.488281 C 1124.800781 183.488281 1116.515625 175.136719 1116.515625 165.261719 L 1116.515625 81.382812 C 1116.515625 71.332031 1124.632812 63.152344 1134.613281 63.152344 L 1483.910156 63.152344 C 1493.890625 63.152344 1502.015625 71.332031 1502.015625 81.382812 L 1502.015625 165.261719 C 1502.015625 175.3125 1493.890625 183.488281 1483.910156 183.488281 Z M 1134.613281 71.589844 C 1129.378906 71.589844 1124.960938 76.074219 1124.960938 81.382812 L 1124.960938 165.261719 C 1124.960938 170.566406 1129.378906 175.050781 1134.613281 175.050781 L 1483.910156 175.050781 C 1489.144531 175.050781 1493.570312 170.566406 1493.570312 165.261719 L 1493.570312 81.382812 C 1493.570312 75.984375 1489.234375 71.589844 1483.910156 71.589844 Z M 1134.613281 71.589844 "/></g><path style=" stroke:none;fill-rule:evenodd;fill:#020b0a;fill-opacity:1;" d="M 1442.945312 128.804688 L 1443.78125 124.417969 C 1444.453125 121.546875 1444.953125 116.992188 1445.289062 113.785156 L 1445.621094 113.785156 C 1445.957031 116.992188 1446.625 121.546875 1447.128906 124.417969 L 1447.964844 128.804688 Z M 1450.804688 142.476562 L 1458.832031 142.476562 L 1449.636719 103.996094 L 1441.273438 103.996094 L 1432.246094 142.476562 L 1440.101562 142.476562 L 1441.441406 136.230469 L 1449.46875 136.230469 Z M 1417.699219 135.050781 L 1417.699219 126.609375 L 1428.398438 126.609375 L 1428.398438 119.523438 L 1417.699219 119.523438 L 1417.699219 111.421875 L 1429.570312 111.421875 L 1429.570312 103.996094 L 1409.839844 103.996094 L 1409.839844 142.476562 L 1430.070312 142.476562 L 1430.070312 135.050781 Z M 1388.9375 111.421875 L 1392.113281 111.421875 C 1394.957031 111.421875 1396.296875 113.277344 1396.296875 116.824219 C 1396.296875 120.367188 1394.957031 122.222656 1392.113281 122.222656 L 1388.9375 122.222656 Z M 1397.800781 142.476562 L 1406.160156 142.476562 L 1398.972656 127.960938 C 1402.484375 125.933594 1404.324219 122.054688 1404.324219 116.820312 C 1404.324219 108.71875 1399.808594 103.996094 1392.285156 103.996094 L 1381.25 103.996094 L 1381.25 142.476562 L 1388.9375 142.476562 L 1388.9375 129.648438 L 1391.613281 129.648438 Z M 1361.851562 128.804688 L 1362.6875 124.417969 C 1363.355469 121.546875 1363.855469 116.992188 1364.359375 113.785156 L 1364.527344 113.785156 C 1364.859375 116.992188 1365.527344 121.546875 1366.03125 124.417969 L 1366.867188 128.804688 Z M 1369.707031 142.476562 L 1377.734375 142.476562 L 1368.539062 103.996094 L 1360.34375 103.996094 L 1351.148438 142.476562 L 1359.175781 142.476562 L 1360.34375 136.230469 L 1368.371094 136.230469 Z M 1326.234375 143.148438 C 1333.761719 143.148438 1337.941406 138.929688 1338.105469 130.832031 L 1338.105469 121.042969 L 1325.902344 121.042969 L 1325.902344 127.960938 L 1330.582031 127.960938 L 1330.582031 130.832031 C 1330.582031 134.207031 1329.078125 135.726562 1326.402344 135.726562 C 1323.558594 135.726562 1322.222656 134.207031 1322.222656 130.832031 L 1322.222656 115.808594 C 1322.222656 112.433594 1323.726562 110.914062 1326.234375 110.914062 C 1328.910156 110.914062 1330.082031 112.433594 1330.25 115.808594 L 1337.941406 115.808594 C 1337.605469 107.710938 1333.59375 103.320312 1326.234375 103.320312 C 1318.710938 103.320312 1314.195312 107.710938 1314.195312 115.808594 L 1314.195312 130.832031 C 1314.195312 138.929688 1318.710938 143.148438 1326.234375 143.148438 Z M 1300.820312 103.996094 L 1300.820312 112.941406 C 1300.820312 116.484375 1301.320312 123.066406 1301.988281 127.960938 L 1301.824219 128.128906 C 1300.820312 125.765625 1299.984375 123.234375 1299.148438 120.703125 L 1291.789062 103.996094 L 1284.265625 103.996094 L 1284.265625 142.476562 L 1291.789062 142.476562 L 1291.789062 134.710938 C 1291.789062 130.492188 1291.457031 123.234375 1290.785156 118.339844 L 1290.953125 118.171875 L 1294.464844 127.625 L 1300.820312 142.476562 L 1308.511719 142.476562 L 1308.511719 103.996094 Z M 1269.71875 103.996094 L 1269.71875 142.476562 L 1277.410156 142.476562 L 1277.410156 103.996094 Z M 1266.039062 103.996094 L 1243.132812 103.996094 L 1243.132812 111.421875 L 1250.65625 111.421875 L 1250.65625 142.476562 L 1258.683594 142.476562 L 1258.683594 111.421875 L 1266.039062 111.421875 Z M 1231.261719 103.996094 L 1231.261719 142.476562 L 1238.953125 142.476562 L 1238.953125 103.996094 Z M 1211.867188 128.804688 L 1212.867188 124.417969 C 1213.371094 121.546875 1213.871094 116.992188 1214.371094 113.785156 L 1214.539062 113.785156 C 1214.875 116.992188 1215.542969 121.546875 1216.046875 124.417969 L 1216.882812 128.804688 Z M 1219.722656 142.476562 L 1227.75 142.476562 L 1218.554688 103.996094 L 1210.359375 103.996094 L 1201.164062 142.476562 L 1209.191406 142.476562 L 1210.359375 136.230469 L 1218.554688 136.230469 Z M 1194.644531 103.996094 L 1191.632812 122.222656 C 1191.296875 125.089844 1190.464844 129.816406 1190.128906 133.023438 L 1189.792969 133.023438 C 1189.460938 129.816406 1188.789062 125.089844 1188.289062 122.222656 L 1185.277344 104.671875 L 1177.253906 104.671875 L 1174.242188 122.222656 C 1173.742188 125.089844 1173.074219 129.816406 1172.738281 133.023438 L 1172.402344 133.023438 C 1172.070312 129.816406 1171.234375 125.089844 1170.898438 122.222656 L 1167.886719 103.996094 L 1159.863281 103.996094 L 1168.390625 142.476562 L 1176.585938 142.476562 L 1179.425781 129.648438 C 1180.261719 125.429688 1180.933594 120.199219 1181.097656 117.160156 L 1181.433594 117.160156 C 1181.601562 120.195312 1182.269531 125.429688 1183.105469 129.648438 L 1185.949219 142.476562 L 1194.140625 142.476562 L 1202.667969 103.996094 Z M 1194.644531 103.996094 "/><path style=" stroke:none;fill-rule:nonzero;fill:#020b0a;fill-opacity:1;" d="M 1478.394531 169.648438 L 1140.300781 169.648438 C 1135.574219 169.648438 1131.726562 165.789062 1131.726562 161.042969 L 1131.726562 85.601562 C 1131.726562 80.851562 1135.574219 76.992188 1140.300781 76.992188 L 1478.394531 76.992188 C 1483.039062 76.992188 1486.964844 80.9375 1486.964844 85.601562 L 1486.964844 161.042969 C 1486.964844 165.707031 1483.039062 169.648438 1478.394531 169.648438 Z M 1140.300781 85.433594 C 1140.269531 85.433594 1140.171875 85.433594 1140.171875 85.601562 L 1140.171875 161.042969 L 1478.394531 161.210938 L 1478.519531 85.601562 Z M 1140.300781 85.433594 "/><path style=" stroke:none;fill-rule:nonzero;fill:#020b0a;fill-opacity:1;" d="M 1432.910156 71.589844 L 1185.78125 71.589844 C 1183.449219 71.589844 1181.558594 69.703125 1181.558594 67.371094 C 1181.558594 57.65625 1186.679688 50.328125 1193.472656 50.328125 L 1425.222656 50.328125 C 1431.898438 50.328125 1437.132812 57.8125 1437.132812 67.371094 C 1437.132812 69.703125 1435.246094 71.589844 1432.910156 71.589844 Z M 1190.539062 63.148438 L 1428.144531 63.148438 C 1427.339844 60.261719 1425.855469 58.765625 1425.222656 58.765625 L 1193.472656 58.765625 C 1192.640625 58.765625 1191.285156 60.390625 1190.539062 63.148438 Z M 1190.539062 63.148438 "/><g clip-rule="nonzero" clip-path="url(#c222164bd6)"><path style=" stroke:none;fill-rule:nonzero;fill:#020b0a;fill-opacity:1;" d="M 1388.433594 58.765625 L 1373.21875 58.765625 C 1370.886719 58.765625 1368.996094 56.878906 1368.996094 54.546875 L 1368.996094 11.507812 C 1368.996094 9.175781 1370.886719 7.289062 1373.21875 7.289062 L 1388.433594 7.289062 C 1390.769531 7.289062 1392.65625 9.175781 1392.65625 11.507812 L 1392.65625 54.546875 C 1392.65625 56.878906 1390.769531 58.765625 1388.433594 58.765625 Z M 1377.441406 50.328125 L 1384.210938 50.328125 L 1384.210938 15.730469 L 1377.441406 15.730469 Z M 1245.472656 58.765625 L 1230.089844 58.765625 C 1227.757812 58.765625 1225.867188 56.878906 1225.867188 54.546875 L 1225.867188 11.507812 C 1225.867188 9.175781 1227.757812 7.289062 1230.089844 7.289062 L 1245.472656 7.289062 C 1247.804688 7.289062 1249.695312 9.175781 1249.695312 11.507812 L 1249.695312 54.546875 C 1249.695312 56.878906 1247.804688 58.765625 1245.472656 58.765625 Z M 1234.3125 50.328125 L 1241.25 50.328125 L 1241.25 15.730469 L 1234.3125 15.730469 Z M 1234.3125 50.328125 "/></g><g style="fill:#f4f3f3;fill-opacity:1;"><g transform="translate(94.500002, 304.224703)"><path style="stroke:none" d="M 25.53125 0.984375 C 21.019531 0.984375 16.65625 0.375 12.4375 -0.84375 C 8.226562 -2.070312 4.84375 -3.664062 2.28125 -5.625 L 6.765625 -15.578125 C 9.210938 -13.785156 12.117188 -12.34375 15.484375 -11.25 C 18.859375 -10.164062 22.234375 -9.625 25.609375 -9.625 C 29.359375 -9.625 32.128906 -10.179688 33.921875 -11.296875 C 35.722656 -12.410156 36.625 -13.890625 36.625 -15.734375 C 36.625 -17.097656 36.09375 -18.226562 35.03125 -19.125 C 33.96875 -20.019531 32.609375 -20.738281 30.953125 -21.28125 C 29.296875 -21.832031 27.050781 -22.429688 24.21875 -23.078125 C 19.875 -24.109375 16.3125 -25.140625 13.53125 -26.171875 C 10.757812 -27.210938 8.378906 -28.875 6.390625 -31.15625 C 4.410156 -33.4375 3.421875 -36.484375 3.421875 -40.296875 C 3.421875 -43.609375 4.316406 -46.609375 6.109375 -49.296875 C 7.910156 -51.992188 10.617188 -54.128906 14.234375 -55.703125 C 17.847656 -57.285156 22.265625 -58.078125 27.484375 -58.078125 C 31.128906 -58.078125 34.691406 -57.640625 38.171875 -56.765625 C 41.648438 -55.898438 44.695312 -54.648438 47.3125 -53.015625 L 43.234375 -42.984375 C 37.953125 -45.972656 32.675781 -47.46875 27.40625 -47.46875 C 23.707031 -47.46875 20.972656 -46.867188 19.203125 -45.671875 C 17.441406 -44.472656 16.5625 -42.894531 16.5625 -40.9375 C 16.5625 -38.988281 17.578125 -37.535156 19.609375 -36.578125 C 21.648438 -35.628906 24.765625 -34.691406 28.953125 -33.765625 C 33.304688 -32.734375 36.867188 -31.703125 39.640625 -30.671875 C 42.410156 -29.640625 44.785156 -28.007812 46.765625 -25.78125 C 48.753906 -23.550781 49.75 -20.53125 49.75 -16.71875 C 49.75 -13.457031 48.835938 -10.476562 47.015625 -7.78125 C 45.191406 -5.09375 42.457031 -2.957031 38.8125 -1.375 C 35.175781 0.195312 30.75 0.984375 25.53125 0.984375 Z M 25.53125 0.984375 "/></g></g><g style="fill:#f4f3f3;fill-opacity:1;"><g transform="translate(146.536925, 304.224703)"><path style="stroke:none" d="M 34.421875 0.984375 C 28.492188 0.984375 23.148438 -0.289062 18.390625 -2.84375 C 13.628906 -5.40625 9.90625 -8.925781 7.21875 -13.40625 C 4.53125 -17.894531 3.1875 -22.941406 3.1875 -28.546875 C 3.1875 -34.148438 4.53125 -39.191406 7.21875 -43.671875 C 9.90625 -48.160156 13.628906 -51.679688 18.390625 -54.234375 C 23.148438 -56.796875 28.492188 -58.078125 34.421875 -58.078125 C 40.347656 -58.078125 45.675781 -56.796875 50.40625 -54.234375 C 55.132812 -51.679688 58.859375 -48.160156 61.578125 -43.671875 C 64.296875 -39.191406 65.65625 -34.148438 65.65625 -28.546875 C 65.65625 -22.941406 64.296875 -17.894531 61.578125 -13.40625 C 58.859375 -8.925781 55.132812 -5.40625 50.40625 -2.84375 C 45.675781 -0.289062 40.347656 0.984375 34.421875 0.984375 Z M 34.421875 -10.28125 C 37.785156 -10.28125 40.828125 -11.050781 43.546875 -12.59375 C 46.265625 -14.144531 48.398438 -16.304688 49.953125 -19.078125 C 51.503906 -21.859375 52.28125 -25.015625 52.28125 -28.546875 C 52.28125 -32.078125 51.503906 -35.226562 49.953125 -38 C 48.398438 -40.78125 46.265625 -42.941406 43.546875 -44.484375 C 40.828125 -46.035156 37.785156 -46.8125 34.421875 -46.8125 C 31.046875 -46.8125 28 -46.035156 25.28125 -44.484375 C 22.5625 -42.941406 20.425781 -40.78125 18.875 -38 C 17.332031 -35.226562 16.5625 -32.078125 16.5625 -28.546875 C 16.5625 -25.015625 17.332031 -21.859375 18.875 -19.078125 C 20.425781 -16.304688 22.5625 -14.144531 25.28125 -12.59375 C 28 -11.050781 31.046875 -10.28125 34.421875 -10.28125 Z M 34.421875 -10.28125 "/></g></g><g style="fill:#f4f3f3;fill-opacity:1;"><g transform="translate(215.375743, 304.224703)"><path style="stroke:none" d="M 58.71875 0 L 58.640625 -34.25 L 41.84375 -6.03125 L 35.890625 -6.03125 L 19.171875 -33.515625 L 19.171875 0 L 6.765625 0 L 6.765625 -57.09375 L 17.703125 -57.09375 L 39.0625 -21.609375 L 60.109375 -57.09375 L 70.953125 -57.09375 L 71.125 0 Z M 58.71875 0 "/></g></g><g style="fill:#f4f3f3;fill-opacity:1;"><g transform="translate(293.268005, 304.224703)"><path style="stroke:none" d="M 50.984375 -10.609375 L 50.984375 0 L 6.765625 0 L 6.765625 -57.09375 L 49.921875 -57.09375 L 49.921875 -46.484375 L 19.90625 -46.484375 L 19.90625 -34.09375 L 46.40625 -34.09375 L 46.40625 -23.8125 L 19.90625 -23.8125 L 19.90625 -10.609375 Z M 50.984375 -10.609375 "/></g></g><g style="fill:#f4f3f3;fill-opacity:1;"><g transform="translate(347.996487, 304.224703)"><path style="stroke:none" d="M 18.59375 -46.328125 L 0.328125 -46.328125 L 0.328125 -57.09375 L 50.078125 -57.09375 L 50.078125 -46.328125 L 31.8125 -46.328125 L 31.8125 0 L 18.59375 0 Z M 18.59375 -46.328125 "/></g></g><g style="fill:#f4f3f3;fill-opacity:1;"><g transform="translate(398.402147, 304.224703)"><path style="stroke:none" d="M 59.140625 -57.09375 L 59.140625 0 L 45.921875 0 L 45.921875 -23.40625 L 19.984375 -23.40625 L 19.984375 0 L 6.765625 0 L 6.765625 -57.09375 L 19.984375 -57.09375 L 19.984375 -34.578125 L 45.921875 -34.578125 L 45.921875 -57.09375 Z M 59.140625 -57.09375 "/></g></g><g style="fill:#f4f3f3;fill-opacity:1;"><g transform="translate(464.304731, 304.224703)"><path style="stroke:none" d="M 6.765625 -57.09375 L 19.984375 -57.09375 L 19.984375 0 L 6.765625 0 Z M 6.765625 -57.09375 "/></g></g><g style="fill:#f4f3f3;fill-opacity:1;"><g transform="translate(491.057263, 304.224703)"><path style="stroke:none" d="M 59.140625 -57.09375 L 59.140625 0 L 48.28125 0 L 19.8125 -34.671875 L 19.8125 0 L 6.765625 0 L 6.765625 -57.09375 L 17.703125 -57.09375 L 46.078125 -22.4375 L 46.078125 -57.09375 Z M 59.140625 -57.09375 "/></g></g><g style="fill:#f4f3f3;fill-opacity:1;"><g transform="translate(556.959802, 304.224703)"><path style="stroke:none" d="M 45.34375 -29.4375 L 57.421875 -29.4375 L 57.421875 -6.28125 C 54.316406 -3.9375 50.722656 -2.140625 46.640625 -0.890625 C 42.566406 0.359375 38.46875 0.984375 34.34375 0.984375 C 28.414062 0.984375 23.082031 -0.28125 18.34375 -2.8125 C 13.613281 -5.34375 9.90625 -8.847656 7.21875 -13.328125 C 4.53125 -17.816406 3.1875 -22.890625 3.1875 -28.546875 C 3.1875 -34.203125 4.53125 -39.269531 7.21875 -43.75 C 9.90625 -48.238281 13.640625 -51.75 18.421875 -54.28125 C 23.210938 -56.8125 28.597656 -58.078125 34.578125 -58.078125 C 39.585938 -58.078125 44.128906 -57.234375 48.203125 -55.546875 C 52.285156 -53.859375 55.710938 -51.410156 58.484375 -48.203125 L 50 -40.375 C 45.914062 -44.664062 40.992188 -46.8125 35.234375 -46.8125 C 31.585938 -46.8125 28.347656 -46.050781 25.515625 -44.53125 C 22.691406 -43.007812 20.492188 -40.863281 18.921875 -38.09375 C 17.347656 -35.320312 16.5625 -32.140625 16.5625 -28.546875 C 16.5625 -25.015625 17.347656 -21.859375 18.921875 -19.078125 C 20.492188 -16.304688 22.679688 -14.144531 25.484375 -12.59375 C 28.285156 -11.050781 31.484375 -10.28125 35.078125 -10.28125 C 38.878906 -10.28125 42.300781 -11.09375 45.34375 -12.71875 Z M 45.34375 -29.4375 "/></g></g><g style="fill:#f4f3f3;fill-opacity:1;"><g transform="translate(619.844533, 304.224703)"><path style="stroke:none" d=""/></g></g><g style="fill:#f4f3f3;fill-opacity:1;"><g transform="translate(642.926762, 304.224703)"><path style="stroke:none" d="M 6.765625 -57.09375 L 19.984375 -57.09375 L 19.984375 0 L 6.765625 0 Z M 6.765625 -57.09375 "/></g></g><g style="fill:#f4f3f3;fill-opacity:1;"><g transform="translate(669.679293, 304.224703)"><path style="stroke:none" d="M 25.53125 0.984375 C 21.019531 0.984375 16.65625 0.375 12.4375 -0.84375 C 8.226562 -2.070312 4.84375 -3.664062 2.28125 -5.625 L 6.765625 -15.578125 C 9.210938 -13.785156 12.117188 -12.34375 15.484375 -11.25 C 18.859375 -10.164062 22.234375 -9.625 25.609375 -9.625 C 29.359375 -9.625 32.128906 -10.179688 33.921875 -11.296875 C 35.722656 -12.410156 36.625 -13.890625 36.625 -15.734375 C 36.625 -17.097656 36.09375 -18.226562 35.03125 -19.125 C 33.96875 -20.019531 32.609375 -20.738281 30.953125 -21.28125 C 29.296875 -21.832031 27.050781 -22.429688 24.21875 -23.078125 C 19.875 -24.109375 16.3125 -25.140625 13.53125 -26.171875 C 10.757812 -27.210938 8.378906 -28.875 6.390625 -31.15625 C 4.410156 -33.4375 3.421875 -36.484375 3.421875 -40.296875 C 3.421875 -43.609375 4.316406 -46.609375 6.109375 -49.296875 C 7.910156 -51.992188 10.617188 -54.128906 14.234375 -55.703125 C 17.847656 -57.285156 22.265625 -58.078125 27.484375 -58.078125 C 31.128906 -58.078125 34.691406 -57.640625 38.171875 -56.765625 C 41.648438 -55.898438 44.695312 -54.648438 47.3125 -53.015625 L 43.234375 -42.984375 C 37.953125 -45.972656 32.675781 -47.46875 27.40625 -47.46875 C 23.707031 -47.46875 20.972656 -46.867188 19.203125 -45.671875 C 17.441406 -44.472656 16.5625 -42.894531 16.5625 -40.9375 C 16.5625 -38.988281 17.578125 -37.535156 19.609375 -36.578125 C 21.648438 -35.628906 24.765625 -34.691406 28.953125 -33.765625 C 33.304688 -32.734375 36.867188 -31.703125 39.640625 -30.671875 C 42.410156 -29.640625 44.785156 -28.007812 46.765625 -25.78125 C 48.753906 -23.550781 49.75 -20.53125 49.75 -16.71875 C 49.75 -13.457031 48.835938 -10.476562 47.015625 -7.78125 C 45.191406 -5.09375 42.457031 -2.957031 38.8125 -1.375 C 35.175781 0.195312 30.75 0.984375 25.53125 0.984375 Z M 25.53125 0.984375 "/></g></g><g style="fill:#f4f3f3;fill-opacity:1;"><g transform="translate(94.500002, 388.974699)"><path style="stroke:none" d="M 34.09375 0.984375 C 28.269531 0.984375 23.003906 -0.28125 18.296875 -2.8125 C 13.597656 -5.34375 9.90625 -8.847656 7.21875 -13.328125 C 4.53125 -17.816406 3.1875 -22.890625 3.1875 -28.546875 C 3.1875 -34.203125 4.53125 -39.269531 7.21875 -43.75 C 9.90625 -48.238281 13.597656 -51.75 18.296875 -54.28125 C 23.003906 -56.8125 28.296875 -58.078125 34.171875 -58.078125 C 39.117188 -58.078125 43.59375 -57.207031 47.59375 -55.46875 C 51.59375 -53.726562 54.953125 -51.222656 57.671875 -47.953125 L 49.1875 -40.125 C 45.320312 -44.582031 40.535156 -46.8125 34.828125 -46.8125 C 31.296875 -46.8125 28.140625 -46.035156 25.359375 -44.484375 C 22.585938 -42.941406 20.425781 -40.78125 18.875 -38 C 17.332031 -35.226562 16.5625 -32.078125 16.5625 -28.546875 C 16.5625 -25.015625 17.332031 -21.859375 18.875 -19.078125 C 20.425781 -16.304688 22.585938 -14.144531 25.359375 -12.59375 C 28.140625 -11.050781 31.296875 -10.28125 34.828125 -10.28125 C 40.535156 -10.28125 45.320312 -12.535156 49.1875 -17.046875 L 57.671875 -9.21875 C 54.953125 -5.894531 51.578125 -3.363281 47.546875 -1.625 C 43.523438 0.113281 39.039062 0.984375 34.09375 0.984375 Z M 34.09375 0.984375 "/></g></g><g style="fill:#f4f3f3;fill-opacity:1;"><g transform="translate(154.285364, 388.974699)"><path style="stroke:none" d="M 34.421875 0.984375 C 28.492188 0.984375 23.148438 -0.289062 18.390625 -2.84375 C 13.628906 -5.40625 9.90625 -8.925781 7.21875 -13.40625 C 4.53125 -17.894531 3.1875 -22.941406 3.1875 -28.546875 C 3.1875 -34.148438 4.53125 -39.191406 7.21875 -43.671875 C 9.90625 -48.160156 13.628906 -51.679688 18.390625 -54.234375 C 23.148438 -56.796875 28.492188 -58.078125 34.421875 -58.078125 C 40.347656 -58.078125 45.675781 -56.796875 50.40625 -54.234375 C 55.132812 -51.679688 58.859375 -48.160156 61.578125 -43.671875 C 64.296875 -39.191406 65.65625 -34.148438 65.65625 -28.546875 C 65.65625 -22.941406 64.296875 -17.894531 61.578125 -13.40625 C 58.859375 -8.925781 55.132812 -5.40625 50.40625 -2.84375 C 45.675781 -0.289062 40.347656 0.984375 34.421875 0.984375 Z M 34.421875 -10.28125 C 37.785156 -10.28125 40.828125 -11.050781 43.546875 -12.59375 C 46.265625 -14.144531 48.398438 -16.304688 49.953125 -19.078125 C 51.503906 -21.859375 52.28125 -25.015625 52.28125 -28.546875 C 52.28125 -32.078125 51.503906 -35.226562 49.953125 -38 C 48.398438 -40.78125 46.265625 -42.941406 43.546875 -44.484375 C 40.828125 -46.035156 37.785156 -46.8125 34.421875 -46.8125 C 31.046875 -46.8125 28 -46.035156 25.28125 -44.484375 C 22.5625 -42.941406 20.425781 -40.78125 18.875 -38 C 17.332031 -35.226562 16.5625 -32.078125 16.5625 -28.546875 C 16.5625 -25.015625 17.332031 -21.859375 18.875 -19.078125 C 20.425781 -16.304688 22.5625 -14.144531 25.28125 -12.59375 C 28 -11.050781 31.046875 -10.28125 34.421875 -10.28125 Z M 34.421875 -10.28125 "/></g></g><g style="fill:#f4f3f3;fill-opacity:1;"><g transform="translate(223.124182, 388.974699)"><path style="stroke:none" d="M 34.421875 0.984375 C 28.492188 0.984375 23.148438 -0.289062 18.390625 -2.84375 C 13.628906 -5.40625 9.90625 -8.925781 7.21875 -13.40625 C 4.53125 -17.894531 3.1875 -22.941406 3.1875 -28.546875 C 3.1875 -34.148438 4.53125 -39.191406 7.21875 -43.671875 C 9.90625 -48.160156 13.628906 -51.679688 18.390625 -54.234375 C 23.148438 -56.796875 28.492188 -58.078125 34.421875 -58.078125 C 40.347656 -58.078125 45.675781 -56.796875 50.40625 -54.234375 C 55.132812 -51.679688 58.859375 -48.160156 61.578125 -43.671875 C 64.296875 -39.191406 65.65625 -34.148438 65.65625 -28.546875 C 65.65625 -22.941406 64.296875 -17.894531 61.578125 -13.40625 C 58.859375 -8.925781 55.132812 -5.40625 50.40625 -2.84375 C 45.675781 -0.289062 40.347656 0.984375 34.421875 0.984375 Z M 34.421875 -10.28125 C 37.785156 -10.28125 40.828125 -11.050781 43.546875 -12.59375 C 46.265625 -14.144531 48.398438 -16.304688 49.953125 -19.078125 C 51.503906 -21.859375 52.28125 -25.015625 52.28125 -28.546875 C 52.28125 -32.078125 51.503906 -35.226562 49.953125 -38 C 48.398438 -40.78125 46.265625 -42.941406 43.546875 -44.484375 C 40.828125 -46.035156 37.785156 -46.8125 34.421875 -46.8125 C 31.046875 -46.8125 28 -46.035156 25.28125 -44.484375 C 22.5625 -42.941406 20.425781 -40.78125 18.875 -38 C 17.332031 -35.226562 16.5625 -32.078125 16.5625 -28.546875 C 16.5625 -25.015625 17.332031 -21.859375 18.875 -19.078125 C 20.425781 -16.304688 22.5625 -14.144531 25.28125 -12.59375 C 28 -11.050781 31.046875 -10.28125 34.421875 -10.28125 Z M 34.421875 -10.28125 "/></g></g><g style="fill:#f4f3f3;fill-opacity:1;"><g transform="translate(291.962989, 388.974699)"><path style="stroke:none" d="M 27.5625 -22.4375 L 19.90625 -14.4375 L 19.90625 0 L 6.765625 0 L 6.765625 -57.09375 L 19.90625 -57.09375 L 19.90625 -30.421875 L 45.1875 -57.09375 L 59.859375 -57.09375 L 36.21875 -31.640625 L 61.25 0 L 45.84375 0 Z M 27.5625 -22.4375 "/></g></g><g style="fill:#f4f3f3;fill-opacity:1;"><g transform="translate(352.319309, 388.974699)"><path style="stroke:none" d="M 6.765625 -57.09375 L 19.984375 -57.09375 L 19.984375 0 L 6.765625 0 Z M 6.765625 -57.09375 "/></g></g><g style="fill:#f4f3f3;fill-opacity:1;"><g transform="translate(379.071841, 388.974699)"><path style="stroke:none" d="M 59.140625 -57.09375 L 59.140625 0 L 48.28125 0 L 19.8125 -34.671875 L 19.8125 0 L 6.765625 0 L 6.765625 -57.09375 L 17.703125 -57.09375 L 46.078125 -22.4375 L 46.078125 -57.09375 Z M 59.140625 -57.09375 "/></g></g><g style="fill:#f4f3f3;fill-opacity:1;"><g transform="translate(444.97438, 388.974699)"><path style="stroke:none" d="M 45.34375 -29.4375 L 57.421875 -29.4375 L 57.421875 -6.28125 C 54.316406 -3.9375 50.722656 -2.140625 46.640625 -0.890625 C 42.566406 0.359375 38.46875 0.984375 34.34375 0.984375 C 28.414062 0.984375 23.082031 -0.28125 18.34375 -2.8125 C 13.613281 -5.34375 9.90625 -8.847656 7.21875 -13.328125 C 4.53125 -17.816406 3.1875 -22.890625 3.1875 -28.546875 C 3.1875 -34.203125 4.53125 -39.269531 7.21875 -43.75 C 9.90625 -48.238281 13.640625 -51.75 18.421875 -54.28125 C 23.210938 -56.8125 28.597656 -58.078125 34.578125 -58.078125 C 39.585938 -58.078125 44.128906 -57.234375 48.203125 -55.546875 C 52.285156 -53.859375 55.710938 -51.410156 58.484375 -48.203125 L 50 -40.375 C 45.914062 -44.664062 40.992188 -46.8125 35.234375 -46.8125 C 31.585938 -46.8125 28.347656 -46.050781 25.515625 -44.53125 C 22.691406 -43.007812 20.492188 -40.863281 18.921875 -38.09375 C 17.347656 -35.320312 16.5625 -32.140625 16.5625 -28.546875 C 16.5625 -25.015625 17.347656 -21.859375 18.921875 -19.078125 C 20.492188 -16.304688 22.679688 -14.144531 25.484375 -12.59375 C 28.285156 -11.050781 31.484375 -10.28125 35.078125 -10.28125 C 38.878906 -10.28125 42.300781 -11.09375 45.34375 -12.71875 Z M 45.34375 -29.4375 "/></g></g><g style="fill:#f4f3f3;fill-opacity:1;"><g transform="translate(507.859112, 388.974699)"><path style="stroke:none" d="M 10.6875 0.65625 C 8.457031 0.65625 6.578125 -0.101562 5.046875 -1.625 C 3.523438 -3.15625 2.765625 -5.0625 2.765625 -7.34375 C 2.765625 -9.675781 3.523438 -11.5625 5.046875 -13 C 6.578125 -14.445312 8.457031 -15.171875 10.6875 -15.171875 C 12.914062 -15.171875 14.789062 -14.445312 16.3125 -13 C 17.832031 -11.5625 18.59375 -9.675781 18.59375 -7.34375 C 18.59375 -5.0625 17.832031 -3.15625 16.3125 -1.625 C 14.789062 -0.101562 12.914062 0.65625 10.6875 0.65625 Z M 10.6875 0.65625 "/></g></g><g style="fill:#f4f3f3;fill-opacity:1;"><g transform="translate(529.228526, 388.974699)"><path style="stroke:none" d="M 10.6875 0.65625 C 8.457031 0.65625 6.578125 -0.101562 5.046875 -1.625 C 3.523438 -3.15625 2.765625 -5.0625 2.765625 -7.34375 C 2.765625 -9.675781 3.523438 -11.5625 5.046875 -13 C 6.578125 -14.445312 8.457031 -15.171875 10.6875 -15.171875 C 12.914062 -15.171875 14.789062 -14.445312 16.3125 -13 C 17.832031 -11.5625 18.59375 -9.675781 18.59375 -7.34375 C 18.59375 -5.0625 17.832031 -3.15625 16.3125 -1.625 C 14.789062 -0.101562 12.914062 0.65625 10.6875 0.65625 Z M 10.6875 0.65625 "/></g></g><g style="fill:#f4f3f3;fill-opacity:1;"><g transform="translate(550.59794, 388.974699)"><path style="stroke:none" d="M 10.6875 0.65625 C 8.457031 0.65625 6.578125 -0.101562 5.046875 -1.625 C 3.523438 -3.15625 2.765625 -5.0625 2.765625 -7.34375 C 2.765625 -9.675781 3.523438 -11.5625 5.046875 -13 C 6.578125 -14.445312 8.457031 -15.171875 10.6875 -15.171875 C 12.914062 -15.171875 14.789062 -14.445312 16.3125 -13 C 17.832031 -11.5625 18.59375 -9.675781 18.59375 -7.34375 C 18.59375 -5.0625 17.832031 -3.15625 16.3125 -1.625 C 14.789062 -0.101562 12.914062 0.65625 10.6875 0.65625 Z M 10.6875 0.65625 "/></g></g><g style="fill:#ffffff;fill-opacity:1;"><g transform="translate(811.388758, -14.321083)"><path style="stroke:none" d="M 3.21875 10.640625 C 2.59375 8.785156 2.382812 7.046875 2.59375 5.421875 C 2.800781 3.804688 3.390625 2.421875 4.359375 1.265625 C 5.328125 0.109375 6.609375 -0.734375 8.203125 -1.265625 C 10.304688 -1.984375 12.363281 -2.140625 14.375 -1.734375 C 16.394531 -1.335938 18.1875 -0.429688 19.75 0.984375 C 21.3125 2.410156 22.472656 4.253906 23.234375 6.515625 C 23.796875 8.171875 24.007812 9.734375 23.875 11.203125 C 23.738281 12.671875 23.253906 13.910156 22.421875 14.921875 L 18.828125 12.671875 C 19.941406 11.203125 20.160156 9.460938 19.484375 7.453125 C 19.023438 6.097656 18.300781 5.003906 17.3125 4.171875 C 16.320312 3.347656 15.175781 2.832031 13.875 2.625 C 12.582031 2.425781 11.269531 2.550781 9.9375 3 C 8.5 3.476562 7.515625 4.316406 6.984375 5.515625 C 6.453125 6.710938 6.46875 8.132812 7.03125 9.78125 C 7.6875 11.738281 8.957031 13.140625 10.84375 13.984375 L 9.09375 17.421875 C 6.320312 16.296875 4.363281 14.035156 3.21875 10.640625 Z M 3.21875 10.640625 "/></g></g><g style="fill:#ffffff;fill-opacity:1;"><g transform="translate(817.948764, 5.12335)"><path style="stroke:none" d="M 3.171875 10.5 C 2.546875 8.644531 2.34375 6.921875 2.5625 5.328125 C 2.78125 3.742188 3.375 2.378906 4.34375 1.234375 C 5.320312 0.0976562 6.609375 -0.734375 8.203125 -1.265625 C 10.304688 -1.984375 12.363281 -2.140625 14.375 -1.734375 C 16.394531 -1.335938 18.1875 -0.4375 19.75 0.96875 C 21.3125 2.382812 22.46875 4.21875 23.21875 6.46875 C 23.84375 8.320312 24.046875 10.039062 23.828125 11.625 C 23.617188 13.21875 23.023438 14.582031 22.046875 15.71875 C 21.066406 16.851562 19.785156 17.6875 18.203125 18.21875 C 16.097656 18.925781 14.039062 19.085938 12.03125 18.703125 C 10.019531 18.316406 8.226562 17.414062 6.65625 16 C 5.09375 14.582031 3.929688 12.75 3.171875 10.5 Z M 6.984375 9.65625 C 7.441406 11.019531 8.164062 12.101562 9.15625 12.90625 C 10.15625 13.707031 11.300781 14.195312 12.59375 14.375 C 13.882812 14.550781 15.1875 14.414062 16.5 13.96875 C 17.914062 13.5 18.894531 12.675781 19.4375 11.5 C 19.976562 10.320312 19.976562 8.929688 19.4375 7.328125 C 18.976562 5.960938 18.25 4.878906 17.25 4.078125 C 16.25 3.273438 15.109375 2.785156 13.828125 2.609375 C 12.546875 2.429688 11.238281 2.566406 9.90625 3.015625 C 8.488281 3.484375 7.507812 4.300781 6.96875 5.46875 C 6.425781 6.632812 6.429688 8.03125 6.984375 9.65625 Z M 6.984375 9.65625 "/></g></g><g style="fill:#ffffff;fill-opacity:1;"><g transform="translate(825.502167, 27.512299)"><path style="stroke:none" d="M 27.125 19.125 L 7.328125 21.703125 L 5.953125 17.65625 L 17.71875 16.125 L 6.28125 12.09375 L 5.625 10.1875 L 13.515625 3.265625 L 1.625 4.796875 L 0.265625 0.765625 L 20.078125 -1.78125 L 21.25 1.71875 L 11.265625 10.265625 L 25.890625 15.4375 Z M 27.125 19.125 "/></g></g><g style="fill:#ffffff;fill-opacity:1;"><g transform="translate(834.048968, 52.845766)"><path style="stroke:none" d="M 20.078125 -1.78125 L 21.53125 2.546875 L 1.71875 5.09375 L 0.265625 0.765625 Z M 20.078125 -1.78125 "/></g></g><g style="fill:#ffffff;fill-opacity:1;"><g transform="translate(836.984415, 61.546688)"><path style="stroke:none" d="M 25.8125 15.25 L 6 17.796875 L 4.8125 14.265625 L 14.109375 3.421875 L 1.6875 5.015625 L 0.265625 0.765625 L 20.078125 -1.78125 L 21.28125 1.78125 L 11.96875 12.625 L 24.390625 11.015625 Z M 25.8125 15.25 "/></g></g><g style="fill:#ffffff;fill-opacity:1;"><g transform="translate(844.215636, 82.980662)"><path style="stroke:none" d="M 14.71875 12.015625 L 16.046875 15.953125 L 7.890625 16.984375 C 6.847656 16.296875 5.921875 15.398438 5.109375 14.296875 C 4.296875 13.191406 3.664062 11.972656 3.21875 10.640625 C 2.59375 8.785156 2.382812 7.050781 2.59375 5.4375 C 2.8125 3.832031 3.398438 2.445312 4.359375 1.28125 C 5.328125 0.113281 6.609375 -0.734375 8.203125 -1.265625 C 10.304688 -1.984375 12.367188 -2.140625 14.390625 -1.734375 C 16.421875 -1.328125 18.21875 -0.40625 19.78125 1.03125 C 21.34375 2.476562 22.507812 4.351562 23.28125 6.65625 C 23.882812 8.414062 24.128906 10.039062 24.015625 11.53125 C 23.910156 13.03125 23.457031 14.347656 22.65625 15.484375 L 19.125 13.25 C 19.644531 12.394531 19.9375 11.519531 20 10.625 C 20.070312 9.738281 19.925781 8.765625 19.5625 7.703125 C 19.082031 6.285156 18.34375 5.144531 17.34375 4.28125 C 16.351562 3.414062 15.207031 2.867188 13.90625 2.640625 C 12.613281 2.421875 11.289062 2.539062 9.9375 3 C 8.5 3.476562 7.515625 4.320312 6.984375 5.53125 C 6.460938 6.75 6.492188 8.226562 7.078125 9.96875 C 7.453125 11.0625 8.023438 12.007812 8.796875 12.8125 Z M 14.71875 12.015625 "/></g></g><g style="fill:#ffffff;fill-opacity:1;"><g transform="translate(851.115724, 103.433128)"><path style="stroke:none" d=""/></g></g><g style="fill:#ffffff;fill-opacity:1;"><g transform="translate(853.64844, 110.940321)"><path style="stroke:none" d="M 2.109375 7.34375 C 1.617188 5.875 1.34375 4.398438 1.28125 2.921875 C 1.21875 1.453125 1.351562 0.210938 1.6875 -0.796875 L 5.578125 -0.15625 C 5.253906 0.882812 5.097656 1.992188 5.109375 3.171875 C 5.128906 4.359375 5.332031 5.507812 5.71875 6.625 C 6.113281 7.8125 6.625 8.679688 7.25 9.234375 C 7.875 9.785156 8.519531 9.953125 9.1875 9.734375 C 9.738281 9.546875 10.066406 9.128906 10.171875 8.484375 C 10.273438 7.835938 10.289062 6.851562 10.21875 5.53125 C 10.175781 4.207031 10.1875 3.109375 10.25 2.234375 C 10.320312 1.367188 10.59375 0.550781 11.0625 -0.21875 C 11.53125 -1 12.300781 -1.570312 13.375 -1.9375 C 14.632812 -2.363281 15.859375 -2.390625 17.046875 -2.015625 C 18.234375 -1.648438 19.300781 -0.910156 20.25 0.203125 C 21.195312 1.316406 21.957031 2.722656 22.53125 4.421875 C 22.957031 5.679688 23.21875 6.910156 23.3125 8.109375 C 23.414062 9.316406 23.347656 10.410156 23.109375 11.390625 L 19.265625 10.890625 C 19.523438 10.023438 19.625 9.117188 19.5625 8.171875 C 19.5 7.234375 19.3125 6.296875 19 5.359375 C 18.59375 4.140625 18.054688 3.242188 17.390625 2.671875 C 16.734375 2.109375 16.066406 1.941406 15.390625 2.171875 C 14.992188 2.304688 14.703125 2.566406 14.515625 2.953125 C 14.335938 3.347656 14.242188 3.804688 14.234375 4.328125 C 14.222656 4.847656 14.242188 5.5625 14.296875 6.46875 C 14.367188 7.769531 14.375 8.851562 14.3125 9.71875 C 14.25 10.59375 13.988281 11.398438 13.53125 12.140625 C 13.082031 12.890625 12.347656 13.441406 11.328125 13.796875 C 10.054688 14.222656 8.828125 14.238281 7.640625 13.84375 C 6.460938 13.457031 5.390625 12.707031 4.421875 11.59375 C 3.460938 10.476562 2.691406 9.0625 2.109375 7.34375 Z M 2.109375 7.34375 "/></g></g><g style="fill:#ffffff;fill-opacity:1;"><g transform="translate(859.358239, 127.864666)"><path style="stroke:none" d="M 3.171875 10.5 C 2.546875 8.644531 2.34375 6.921875 2.5625 5.328125 C 2.78125 3.742188 3.375 2.378906 4.34375 1.234375 C 5.320312 0.0976562 6.609375 -0.734375 8.203125 -1.265625 C 10.304688 -1.984375 12.363281 -2.140625 14.375 -1.734375 C 16.394531 -1.335938 18.1875 -0.4375 19.75 0.96875 C 21.3125 2.382812 22.46875 4.21875 23.21875 6.46875 C 23.84375 8.320312 24.046875 10.039062 23.828125 11.625 C 23.617188 13.21875 23.023438 14.582031 22.046875 15.71875 C 21.066406 16.851562 19.785156 17.6875 18.203125 18.21875 C 16.097656 18.925781 14.039062 19.085938 12.03125 18.703125 C 10.019531 18.316406 8.226562 17.414062 6.65625 16 C 5.09375 14.582031 3.929688 12.75 3.171875 10.5 Z M 6.984375 9.65625 C 7.441406 11.019531 8.164062 12.101562 9.15625 12.90625 C 10.15625 13.707031 11.300781 14.195312 12.59375 14.375 C 13.882812 14.550781 15.1875 14.414062 16.5 13.96875 C 17.914062 13.5 18.894531 12.675781 19.4375 11.5 C 19.976562 10.320312 19.976562 8.929688 19.4375 7.328125 C 18.976562 5.960938 18.25 4.878906 17.25 4.078125 C 16.25 3.273438 15.109375 2.785156 13.828125 2.609375 C 12.546875 2.429688 11.238281 2.566406 9.90625 3.015625 C 8.488281 3.484375 7.507812 4.300781 6.96875 5.46875 C 6.425781 6.632812 6.429688 8.03125 6.984375 9.65625 Z M 6.984375 9.65625 "/></g></g><g style="fill:#ffffff;fill-opacity:1;"><g transform="translate(866.911642, 150.253616)"><path style="stroke:none" d="M 3.171875 10.5 C 2.546875 8.644531 2.34375 6.921875 2.5625 5.328125 C 2.78125 3.742188 3.375 2.378906 4.34375 1.234375 C 5.320312 0.0976562 6.609375 -0.734375 8.203125 -1.265625 C 10.304688 -1.984375 12.363281 -2.140625 14.375 -1.734375 C 16.394531 -1.335938 18.1875 -0.4375 19.75 0.96875 C 21.3125 2.382812 22.46875 4.21875 23.21875 6.46875 C 23.84375 8.320312 24.046875 10.039062 23.828125 11.625 C 23.617188 13.21875 23.023438 14.582031 22.046875 15.71875 C 21.066406 16.851562 19.785156 17.6875 18.203125 18.21875 C 16.097656 18.925781 14.039062 19.085938 12.03125 18.703125 C 10.019531 18.316406 8.226562 17.414062 6.65625 16 C 5.09375 14.582031 3.929688 12.75 3.171875 10.5 Z M 6.984375 9.65625 C 7.441406 11.019531 8.164062 12.101562 9.15625 12.90625 C 10.15625 13.707031 11.300781 14.195312 12.59375 14.375 C 13.882812 14.550781 15.1875 14.414062 16.5 13.96875 C 17.914062 13.5 18.894531 12.675781 19.4375 11.5 C 19.976562 10.320312 19.976562 8.929688 19.4375 7.328125 C 18.976562 5.960938 18.25 4.878906 17.25 4.078125 C 16.25 3.273438 15.109375 2.785156 13.828125 2.609375 C 12.546875 2.429688 11.238281 2.566406 9.90625 3.015625 C 8.488281 3.484375 7.507812 4.300781 6.96875 5.46875 C 6.425781 6.632812 6.429688 8.03125 6.984375 9.65625 Z M 6.984375 9.65625 "/></g></g><g style="fill:#ffffff;fill-opacity:1;"><g transform="translate(874.465045, 172.642565)"><path style="stroke:none" d="M 25.8125 15.25 L 6 17.796875 L 4.8125 14.265625 L 14.109375 3.421875 L 1.6875 5.015625 L 0.265625 0.765625 L 20.078125 -1.78125 L 21.28125 1.78125 L 11.96875 12.625 L 24.390625 11.015625 Z M 25.8125 15.25 "/></g></g><g style="fill:#ffffff;fill-opacity:1;"><g transform="translate(899.060634, 261.874333)"><path style="stroke:none" d="M 3.21875 10.640625 C 2.59375 8.785156 2.382812 7.046875 2.59375 5.421875 C 2.800781 3.804688 3.390625 2.421875 4.359375 1.265625 C 5.328125 0.109375 6.609375 -0.734375 8.203125 -1.265625 C 10.304688 -1.984375 12.363281 -2.140625 14.375 -1.734375 C 16.394531 -1.335938 18.1875 -0.429688 19.75 0.984375 C 21.3125 2.410156 22.472656 4.253906 23.234375 6.515625 C 23.796875 8.171875 24.007812 9.734375 23.875 11.203125 C 23.738281 12.671875 23.253906 13.910156 22.421875 14.921875 L 18.828125 12.671875 C 19.941406 11.203125 20.160156 9.460938 19.484375 7.453125 C 19.023438 6.097656 18.300781 5.003906 17.3125 4.171875 C 16.320312 3.347656 15.175781 2.832031 13.875 2.625 C 12.582031 2.425781 11.269531 2.550781 9.9375 3 C 8.5 3.476562 7.515625 4.316406 6.984375 5.515625 C 6.453125 6.710938 6.46875 8.132812 7.03125 9.78125 C 7.6875 11.738281 8.957031 13.140625 10.84375 13.984375 L 9.09375 17.421875 C 6.320312 16.296875 4.363281 14.035156 3.21875 10.640625 Z M 3.21875 10.640625 "/></g></g><g style="fill:#ffffff;fill-opacity:1;"><g transform="translate(905.62064, 281.318766)"><path style="stroke:none" d="M 3.171875 10.5 C 2.546875 8.644531 2.34375 6.921875 2.5625 5.328125 C 2.78125 3.742188 3.375 2.378906 4.34375 1.234375 C 5.320312 0.0976562 6.609375 -0.734375 8.203125 -1.265625 C 10.304688 -1.984375 12.363281 -2.140625 14.375 -1.734375 C 16.394531 -1.335938 18.1875 -0.4375 19.75 0.96875 C 21.3125 2.382812 22.46875 4.21875 23.21875 6.46875 C 23.84375 8.320312 24.046875 10.039062 23.828125 11.625 C 23.617188 13.21875 23.023438 14.582031 22.046875 15.71875 C 21.066406 16.851562 19.785156 17.6875 18.203125 18.21875 C 16.097656 18.925781 14.039062 19.085938 12.03125 18.703125 C 10.019531 18.316406 8.226562 17.414062 6.65625 16 C 5.09375 14.582031 3.929688 12.75 3.171875 10.5 Z M 6.984375 9.65625 C 7.441406 11.019531 8.164062 12.101562 9.15625 12.90625 C 10.15625 13.707031 11.300781 14.195312 12.59375 14.375 C 13.882812 14.550781 15.1875 14.414062 16.5 13.96875 C 17.914062 13.5 18.894531 12.675781 19.4375 11.5 C 19.976562 10.320312 19.976562 8.929688 19.4375 7.328125 C 18.976562 5.960938 18.25 4.878906 17.25 4.078125 C 16.25 3.273438 15.109375 2.785156 13.828125 2.609375 C 12.546875 2.429688 11.238281 2.566406 9.90625 3.015625 C 8.488281 3.484375 7.507812 4.300781 6.96875 5.46875 C 6.425781 6.632812 6.429688 8.03125 6.984375 9.65625 Z M 6.984375 9.65625 "/></g></g><g style="fill:#ffffff;fill-opacity:1;"><g transform="translate(913.174043, 303.707716)"><path style="stroke:none" d="M 27.125 19.125 L 7.328125 21.703125 L 5.953125 17.65625 L 17.71875 16.125 L 6.28125 12.09375 L 5.625 10.1875 L 13.515625 3.265625 L 1.625 4.796875 L 0.265625 0.765625 L 20.078125 -1.78125 L 21.25 1.71875 L 11.265625 10.265625 L 25.890625 15.4375 Z M 27.125 19.125 "/></g></g><g style="fill:#ffffff;fill-opacity:1;"><g transform="translate(921.720843, 329.041182)"><path style="stroke:none" d="M 20.078125 -1.78125 L 21.53125 2.546875 L 1.71875 5.09375 L 0.265625 0.765625 Z M 20.078125 -1.78125 "/></g></g><g style="fill:#ffffff;fill-opacity:1;"><g transform="translate(924.65629, 337.742104)"><path style="stroke:none" d="M 25.8125 15.25 L 6 17.796875 L 4.8125 14.265625 L 14.109375 3.421875 L 1.6875 5.015625 L 0.265625 0.765625 L 20.078125 -1.78125 L 21.28125 1.78125 L 11.96875 12.625 L 24.390625 11.015625 Z M 25.8125 15.25 "/></g></g><g style="fill:#ffffff;fill-opacity:1;"><g transform="translate(931.887512, 359.176079)"><path style="stroke:none" d="M 14.71875 12.015625 L 16.046875 15.953125 L 7.890625 16.984375 C 6.847656 16.296875 5.921875 15.398438 5.109375 14.296875 C 4.296875 13.191406 3.664062 11.972656 3.21875 10.640625 C 2.59375 8.785156 2.382812 7.050781 2.59375 5.4375 C 2.8125 3.832031 3.398438 2.445312 4.359375 1.28125 C 5.328125 0.113281 6.609375 -0.734375 8.203125 -1.265625 C 10.304688 -1.984375 12.367188 -2.140625 14.390625 -1.734375 C 16.421875 -1.328125 18.21875 -0.40625 19.78125 1.03125 C 21.34375 2.476562 22.507812 4.351562 23.28125 6.65625 C 23.882812 8.414062 24.128906 10.039062 24.015625 11.53125 C 23.910156 13.03125 23.457031 14.347656 22.65625 15.484375 L 19.125 13.25 C 19.644531 12.394531 19.9375 11.519531 20 10.625 C 20.070312 9.738281 19.925781 8.765625 19.5625 7.703125 C 19.082031 6.285156 18.34375 5.144531 17.34375 4.28125 C 16.351562 3.414062 15.207031 2.867188 13.90625 2.640625 C 12.613281 2.421875 11.289062 2.539062 9.9375 3 C 8.5 3.476562 7.515625 4.320312 6.984375 5.53125 C 6.460938 6.75 6.492188 8.226562 7.078125 9.96875 C 7.453125 11.0625 8.023438 12.007812 8.796875 12.8125 Z M 14.71875 12.015625 "/></g></g><g style="fill:#ffffff;fill-opacity:1;"><g transform="translate(938.7876, 379.628545)"><path style="stroke:none" d=""/></g></g><g style="fill:#ffffff;fill-opacity:1;"><g transform="translate(941.320316, 387.135737)"><path style="stroke:none" d="M 2.109375 7.34375 C 1.617188 5.875 1.34375 4.398438 1.28125 2.921875 C 1.21875 1.453125 1.351562 0.210938 1.6875 -0.796875 L 5.578125 -0.15625 C 5.253906 0.882812 5.097656 1.992188 5.109375 3.171875 C 5.128906 4.359375 5.332031 5.507812 5.71875 6.625 C 6.113281 7.8125 6.625 8.679688 7.25 9.234375 C 7.875 9.785156 8.519531 9.953125 9.1875 9.734375 C 9.738281 9.546875 10.066406 9.128906 10.171875 8.484375 C 10.273438 7.835938 10.289062 6.851562 10.21875 5.53125 C 10.175781 4.207031 10.1875 3.109375 10.25 2.234375 C 10.320312 1.367188 10.59375 0.550781 11.0625 -0.21875 C 11.53125 -1 12.300781 -1.570312 13.375 -1.9375 C 14.632812 -2.363281 15.859375 -2.390625 17.046875 -2.015625 C 18.234375 -1.648438 19.300781 -0.910156 20.25 0.203125 C 21.195312 1.316406 21.957031 2.722656 22.53125 4.421875 C 22.957031 5.679688 23.21875 6.910156 23.3125 8.109375 C 23.414062 9.316406 23.347656 10.410156 23.109375 11.390625 L 19.265625 10.890625 C 19.523438 10.023438 19.625 9.117188 19.5625 8.171875 C 19.5 7.234375 19.3125 6.296875 19 5.359375 C 18.59375 4.140625 18.054688 3.242188 17.390625 2.671875 C 16.734375 2.109375 16.066406 1.941406 15.390625 2.171875 C 14.992188 2.304688 14.703125 2.566406 14.515625 2.953125 C 14.335938 3.347656 14.242188 3.804688 14.234375 4.328125 C 14.222656 4.847656 14.242188 5.5625 14.296875 6.46875 C 14.367188 7.769531 14.375 8.851562 14.3125 9.71875 C 14.25 10.59375 13.988281 11.398438 13.53125 12.140625 C 13.082031 12.890625 12.347656 13.441406 11.328125 13.796875 C 10.054688 14.222656 8.828125 14.238281 7.640625 13.84375 C 6.460938 13.457031 5.390625 12.707031 4.421875 11.59375 C 3.460938 10.476562 2.691406 9.0625 2.109375 7.34375 Z M 2.109375 7.34375 "/></g></g><g style="fill:#ffffff;fill-opacity:1;"><g transform="translate(947.030115, 404.060083)"><path style="stroke:none" d="M 3.171875 10.5 C 2.546875 8.644531 2.34375 6.921875 2.5625 5.328125 C 2.78125 3.742188 3.375 2.378906 4.34375 1.234375 C 5.320312 0.0976562 6.609375 -0.734375 8.203125 -1.265625 C 10.304688 -1.984375 12.363281 -2.140625 14.375 -1.734375 C 16.394531 -1.335938 18.1875 -0.4375 19.75 0.96875 C 21.3125 2.382812 22.46875 4.21875 23.21875 6.46875 C 23.84375 8.320312 24.046875 10.039062 23.828125 11.625 C 23.617188 13.21875 23.023438 14.582031 22.046875 15.71875 C 21.066406 16.851562 19.785156 17.6875 18.203125 18.21875 C 16.097656 18.925781 14.039062 19.085938 12.03125 18.703125 C 10.019531 18.316406 8.226562 17.414062 6.65625 16 C 5.09375 14.582031 3.929688 12.75 3.171875 10.5 Z M 6.984375 9.65625 C 7.441406 11.019531 8.164062 12.101562 9.15625 12.90625 C 10.15625 13.707031 11.300781 14.195312 12.59375 14.375 C 13.882812 14.550781 15.1875 14.414062 16.5 13.96875 C 17.914062 13.5 18.894531 12.675781 19.4375 11.5 C 19.976562 10.320312 19.976562 8.929688 19.4375 7.328125 C 18.976562 5.960938 18.25 4.878906 17.25 4.078125 C 16.25 3.273438 15.109375 2.785156 13.828125 2.609375 C 12.546875 2.429688 11.238281 2.566406 9.90625 3.015625 C 8.488281 3.484375 7.507812 4.300781 6.96875 5.46875 C 6.425781 6.632812 6.429688 8.03125 6.984375 9.65625 Z M 6.984375 9.65625 "/></g></g><g style="fill:#ffffff;fill-opacity:1;"><g transform="translate(954.583518, 426.449032)"><path style="stroke:none" d="M 3.171875 10.5 C 2.546875 8.644531 2.34375 6.921875 2.5625 5.328125 C 2.78125 3.742188 3.375 2.378906 4.34375 1.234375 C 5.320312 0.0976562 6.609375 -0.734375 8.203125 -1.265625 C 10.304688 -1.984375 12.363281 -2.140625 14.375 -1.734375 C 16.394531 -1.335938 18.1875 -0.4375 19.75 0.96875 C 21.3125 2.382812 22.46875 4.21875 23.21875 6.46875 C 23.84375 8.320312 24.046875 10.039062 23.828125 11.625 C 23.617188 13.21875 23.023438 14.582031 22.046875 15.71875 C 21.066406 16.851562 19.785156 17.6875 18.203125 18.21875 C 16.097656 18.925781 14.039062 19.085938 12.03125 18.703125 C 10.019531 18.316406 8.226562 17.414062 6.65625 16 C 5.09375 14.582031 3.929688 12.75 3.171875 10.5 Z M 6.984375 9.65625 C 7.441406 11.019531 8.164062 12.101562 9.15625 12.90625 C 10.15625 13.707031 11.300781 14.195312 12.59375 14.375 C 13.882812 14.550781 15.1875 14.414062 16.5 13.96875 C 17.914062 13.5 18.894531 12.675781 19.4375 11.5 C 19.976562 10.320312 19.976562 8.929688 19.4375 7.328125 C 18.976562 5.960938 18.25 4.878906 17.25 4.078125 C 16.25 3.273438 15.109375 2.785156 13.828125 2.609375 C 12.546875 2.429688 11.238281 2.566406 9.90625 3.015625 C 8.488281 3.484375 7.507812 4.300781 6.96875 5.46875 C 6.425781 6.632812 6.429688 8.03125 6.984375 9.65625 Z M 6.984375 9.65625 "/></g></g><g style="fill:#ffffff;fill-opacity:1;"><g transform="translate(962.136921, 448.837982)"><path style="stroke:none" d="M 25.8125 15.25 L 6 17.796875 L 4.8125 14.265625 L 14.109375 3.421875 L 1.6875 5.015625 L 0.265625 0.765625 L 20.078125 -1.78125 L 21.28125 1.78125 L 11.96875 12.625 L 24.390625 11.015625 Z M 25.8125 15.25 "/></g></g><g style="fill:#ffffff;fill-opacity:1;"><g transform="translate(991.427989, 545.532731)"><path style="stroke:none" d="M 3.21875 10.640625 C 2.59375 8.785156 2.382812 7.046875 2.59375 5.421875 C 2.800781 3.804688 3.390625 2.421875 4.359375 1.265625 C 5.328125 0.109375 6.609375 -0.734375 8.203125 -1.265625 C 10.304688 -1.984375 12.363281 -2.140625 14.375 -1.734375 C 16.394531 -1.335938 18.1875 -0.429688 19.75 0.984375 C 21.3125 2.410156 22.472656 4.253906 23.234375 6.515625 C 23.796875 8.171875 24.007812 9.734375 23.875 11.203125 C 23.738281 12.671875 23.253906 13.910156 22.421875 14.921875 L 18.828125 12.671875 C 19.941406 11.203125 20.160156 9.460938 19.484375 7.453125 C 19.023438 6.097656 18.300781 5.003906 17.3125 4.171875 C 16.320312 3.347656 15.175781 2.832031 13.875 2.625 C 12.582031 2.425781 11.269531 2.550781 9.9375 3 C 8.5 3.476562 7.515625 4.316406 6.984375 5.515625 C 6.453125 6.710938 6.46875 8.132812 7.03125 9.78125 C 7.6875 11.738281 8.957031 13.140625 10.84375 13.984375 L 9.09375 17.421875 C 6.320312 16.296875 4.363281 14.035156 3.21875 10.640625 Z M 3.21875 10.640625 "/></g></g><g style="fill:#ffffff;fill-opacity:1;"><g transform="translate(997.987995, 564.977164)"><path style="stroke:none" d="M 3.171875 10.5 C 2.546875 8.644531 2.34375 6.921875 2.5625 5.328125 C 2.78125 3.742188 3.375 2.378906 4.34375 1.234375 C 5.320312 0.0976562 6.609375 -0.734375 8.203125 -1.265625 C 10.304688 -1.984375 12.363281 -2.140625 14.375 -1.734375 C 16.394531 -1.335938 18.1875 -0.4375 19.75 0.96875 C 21.3125 2.382812 22.46875 4.21875 23.21875 6.46875 C 23.84375 8.320312 24.046875 10.039062 23.828125 11.625 C 23.617188 13.21875 23.023438 14.582031 22.046875 15.71875 C 21.066406 16.851562 19.785156 17.6875 18.203125 18.21875 C 16.097656 18.925781 14.039062 19.085938 12.03125 18.703125 C 10.019531 18.316406 8.226562 17.414062 6.65625 16 C 5.09375 14.582031 3.929688 12.75 3.171875 10.5 Z M 6.984375 9.65625 C 7.441406 11.019531 8.164062 12.101562 9.15625 12.90625 C 10.15625 13.707031 11.300781 14.195312 12.59375 14.375 C 13.882812 14.550781 15.1875 14.414062 16.5 13.96875 C 17.914062 13.5 18.894531 12.675781 19.4375 11.5 C 19.976562 10.320312 19.976562 8.929688 19.4375 7.328125 C 18.976562 5.960938 18.25 4.878906 17.25 4.078125 C 16.25 3.273438 15.109375 2.785156 13.828125 2.609375 C 12.546875 2.429688 11.238281 2.566406 9.90625 3.015625 C 8.488281 3.484375 7.507812 4.300781 6.96875 5.46875 C 6.425781 6.632812 6.429688 8.03125 6.984375 9.65625 Z M 6.984375 9.65625 "/></g></g><g style="fill:#ffffff;fill-opacity:1;"><g transform="translate(1005.541398, 587.366114)"><path style="stroke:none" d="M 27.125 19.125 L 7.328125 21.703125 L 5.953125 17.65625 L 17.71875 16.125 L 6.28125 12.09375 L 5.625 10.1875 L 13.515625 3.265625 L 1.625 4.796875 L 0.265625 0.765625 L 20.078125 -1.78125 L 21.25 1.71875 L 11.265625 10.265625 L 25.890625 15.4375 Z M 27.125 19.125 "/></g></g><g style="fill:#ffffff;fill-opacity:1;"><g transform="translate(1014.088199, 612.69958)"><path style="stroke:none" d="M 20.078125 -1.78125 L 21.53125 2.546875 L 1.71875 5.09375 L 0.265625 0.765625 Z M 20.078125 -1.78125 "/></g></g><g style="fill:#ffffff;fill-opacity:1;"><g transform="translate(1017.023646, 621.400502)"><path style="stroke:none" d="M 25.8125 15.25 L 6 17.796875 L 4.8125 14.265625 L 14.109375 3.421875 L 1.6875 5.015625 L 0.265625 0.765625 L 20.078125 -1.78125 L 21.28125 1.78125 L 11.96875 12.625 L 24.390625 11.015625 Z M 25.8125 15.25 "/></g></g><g style="fill:#ffffff;fill-opacity:1;"><g transform="translate(1024.254867, 642.834477)"><path style="stroke:none" d="M 14.71875 12.015625 L 16.046875 15.953125 L 7.890625 16.984375 C 6.847656 16.296875 5.921875 15.398438 5.109375 14.296875 C 4.296875 13.191406 3.664062 11.972656 3.21875 10.640625 C 2.59375 8.785156 2.382812 7.050781 2.59375 5.4375 C 2.8125 3.832031 3.398438 2.445312 4.359375 1.28125 C 5.328125 0.113281 6.609375 -0.734375 8.203125 -1.265625 C 10.304688 -1.984375 12.367188 -2.140625 14.390625 -1.734375 C 16.421875 -1.328125 18.21875 -0.40625 19.78125 1.03125 C 21.34375 2.476562 22.507812 4.351562 23.28125 6.65625 C 23.882812 8.414062 24.128906 10.039062 24.015625 11.53125 C 23.910156 13.03125 23.457031 14.347656 22.65625 15.484375 L 19.125 13.25 C 19.644531 12.394531 19.9375 11.519531 20 10.625 C 20.070312 9.738281 19.925781 8.765625 19.5625 7.703125 C 19.082031 6.285156 18.34375 5.144531 17.34375 4.28125 C 16.351562 3.414062 15.207031 2.867188 13.90625 2.640625 C 12.613281 2.421875 11.289062 2.539062 9.9375 3 C 8.5 3.476562 7.515625 4.320312 6.984375 5.53125 C 6.460938 6.75 6.492188 8.226562 7.078125 9.96875 C 7.453125 11.0625 8.023438 12.007812 8.796875 12.8125 Z M 14.71875 12.015625 "/></g></g><g style="fill:#ffffff;fill-opacity:1;"><g transform="translate(1031.154955, 663.286943)"><path style="stroke:none" d=""/></g></g><g style="fill:#ffffff;fill-opacity:1;"><g transform="translate(1033.687671, 670.794135)"><path style="stroke:none" d="M 2.109375 7.34375 C 1.617188 5.875 1.34375 4.398438 1.28125 2.921875 C 1.21875 1.453125 1.351562 0.210938 1.6875 -0.796875 L 5.578125 -0.15625 C 5.253906 0.882812 5.097656 1.992188 5.109375 3.171875 C 5.128906 4.359375 5.332031 5.507812 5.71875 6.625 C 6.113281 7.8125 6.625 8.679688 7.25 9.234375 C 7.875 9.785156 8.519531 9.953125 9.1875 9.734375 C 9.738281 9.546875 10.066406 9.128906 10.171875 8.484375 C 10.273438 7.835938 10.289062 6.851562 10.21875 5.53125 C 10.175781 4.207031 10.1875 3.109375 10.25 2.234375 C 10.320312 1.367188 10.59375 0.550781 11.0625 -0.21875 C 11.53125 -1 12.300781 -1.570312 13.375 -1.9375 C 14.632812 -2.363281 15.859375 -2.390625 17.046875 -2.015625 C 18.234375 -1.648438 19.300781 -0.910156 20.25 0.203125 C 21.195312 1.316406 21.957031 2.722656 22.53125 4.421875 C 22.957031 5.679688 23.21875 6.910156 23.3125 8.109375 C 23.414062 9.316406 23.347656 10.410156 23.109375 11.390625 L 19.265625 10.890625 C 19.523438 10.023438 19.625 9.117188 19.5625 8.171875 C 19.5 7.234375 19.3125 6.296875 19 5.359375 C 18.59375 4.140625 18.054688 3.242188 17.390625 2.671875 C 16.734375 2.109375 16.066406 1.941406 15.390625 2.171875 C 14.992188 2.304688 14.703125 2.566406 14.515625 2.953125 C 14.335938 3.347656 14.242188 3.804688 14.234375 4.328125 C 14.222656 4.847656 14.242188 5.5625 14.296875 6.46875 C 14.367188 7.769531 14.375 8.851562 14.3125 9.71875 C 14.25 10.59375 13.988281 11.398438 13.53125 12.140625 C 13.082031 12.890625 12.347656 13.441406 11.328125 13.796875 C 10.054688 14.222656 8.828125 14.238281 7.640625 13.84375 C 6.460938 13.457031 5.390625 12.707031 4.421875 11.59375 C 3.460938 10.476562 2.691406 9.0625 2.109375 7.34375 Z M 2.109375 7.34375 "/></g></g><g style="fill:#ffffff;fill-opacity:1;"><g transform="translate(1039.39747, 687.718481)"><path style="stroke:none" d="M 3.171875 10.5 C 2.546875 8.644531 2.34375 6.921875 2.5625 5.328125 C 2.78125 3.742188 3.375 2.378906 4.34375 1.234375 C 5.320312 0.0976562 6.609375 -0.734375 8.203125 -1.265625 C 10.304688 -1.984375 12.363281 -2.140625 14.375 -1.734375 C 16.394531 -1.335938 18.1875 -0.4375 19.75 0.96875 C 21.3125 2.382812 22.46875 4.21875 23.21875 6.46875 C 23.84375 8.320312 24.046875 10.039062 23.828125 11.625 C 23.617188 13.21875 23.023438 14.582031 22.046875 15.71875 C 21.066406 16.851562 19.785156 17.6875 18.203125 18.21875 C 16.097656 18.925781 14.039062 19.085938 12.03125 18.703125 C 10.019531 18.316406 8.226562 17.414062 6.65625 16 C 5.09375 14.582031 3.929688 12.75 3.171875 10.5 Z M 6.984375 9.65625 C 7.441406 11.019531 8.164062 12.101562 9.15625 12.90625 C 10.15625 13.707031 11.300781 14.195312 12.59375 14.375 C 13.882812 14.550781 15.1875 14.414062 16.5 13.96875 C 17.914062 13.5 18.894531 12.675781 19.4375 11.5 C 19.976562 10.320312 19.976562 8.929688 19.4375 7.328125 C 18.976562 5.960938 18.25 4.878906 17.25 4.078125 C 16.25 3.273438 15.109375 2.785156 13.828125 2.609375 C 12.546875 2.429688 11.238281 2.566406 9.90625 3.015625 C 8.488281 3.484375 7.507812 4.300781 6.96875 5.46875 C 6.425781 6.632812 6.429688 8.03125 6.984375 9.65625 Z M 6.984375 9.65625 "/></g></g><g style="fill:#ffffff;fill-opacity:1;"><g transform="translate(1046.950873, 710.10743)"><path style="stroke:none" d="M 3.171875 10.5 C 2.546875 8.644531 2.34375 6.921875 2.5625 5.328125 C 2.78125 3.742188 3.375 2.378906 4.34375 1.234375 C 5.320312 0.0976562 6.609375 -0.734375 8.203125 -1.265625 C 10.304688 -1.984375 12.363281 -2.140625 14.375 -1.734375 C 16.394531 -1.335938 18.1875 -0.4375 19.75 0.96875 C 21.3125 2.382812 22.46875 4.21875 23.21875 6.46875 C 23.84375 8.320312 24.046875 10.039062 23.828125 11.625 C 23.617188 13.21875 23.023438 14.582031 22.046875 15.71875 C 21.066406 16.851562 19.785156 17.6875 18.203125 18.21875 C 16.097656 18.925781 14.039062 19.085938 12.03125 18.703125 C 10.019531 18.316406 8.226562 17.414062 6.65625 16 C 5.09375 14.582031 3.929688 12.75 3.171875 10.5 Z M 6.984375 9.65625 C 7.441406 11.019531 8.164062 12.101562 9.15625 12.90625 C 10.15625 13.707031 11.300781 14.195312 12.59375 14.375 C 13.882812 14.550781 15.1875 14.414062 16.5 13.96875 C 17.914062 13.5 18.894531 12.675781 19.4375 11.5 C 19.976562 10.320312 19.976562 8.929688 19.4375 7.328125 C 18.976562 5.960938 18.25 4.878906 17.25 4.078125 C 16.25 3.273438 15.109375 2.785156 13.828125 2.609375 C 12.546875 2.429688 11.238281 2.566406 9.90625 3.015625 C 8.488281 3.484375 7.507812 4.300781 6.96875 5.46875 C 6.425781 6.632812 6.429688 8.03125 6.984375 9.65625 Z M 6.984375 9.65625 "/></g></g><g style="fill:#ffffff;fill-opacity:1;"><g transform="translate(1054.504277, 732.49638)"><path style="stroke:none" d="M 25.8125 15.25 L 6 17.796875 L 4.8125 14.265625 L 14.109375 3.421875 L 1.6875 5.015625 L 0.265625 0.765625 L 20.078125 -1.78125 L 21.28125 1.78125 L 11.96875 12.625 L 24.390625 11.015625 Z M 25.8125 15.25 "/></g></g><g style="fill:#ffffff;fill-opacity:1;"><g transform="translate(1078.012089, 822.248614)"><path style="stroke:none" d="M 3.21875 10.640625 C 2.59375 8.785156 2.382812 7.046875 2.59375 5.421875 C 2.800781 3.804688 3.390625 2.421875 4.359375 1.265625 C 5.328125 0.109375 6.609375 -0.734375 8.203125 -1.265625 C 10.304688 -1.984375 12.363281 -2.140625 14.375 -1.734375 C 16.394531 -1.335938 18.1875 -0.429688 19.75 0.984375 C 21.3125 2.410156 22.472656 4.253906 23.234375 6.515625 C 23.796875 8.171875 24.007812 9.734375 23.875 11.203125 C 23.738281 12.671875 23.253906 13.910156 22.421875 14.921875 L 18.828125 12.671875 C 19.941406 11.203125 20.160156 9.460938 19.484375 7.453125 C 19.023438 6.097656 18.300781 5.003906 17.3125 4.171875 C 16.320312 3.347656 15.175781 2.832031 13.875 2.625 C 12.582031 2.425781 11.269531 2.550781 9.9375 3 C 8.5 3.476562 7.515625 4.316406 6.984375 5.515625 C 6.453125 6.710938 6.46875 8.132812 7.03125 9.78125 C 7.6875 11.738281 8.957031 13.140625 10.84375 13.984375 L 9.09375 17.421875 C 6.320312 16.296875 4.363281 14.035156 3.21875 10.640625 Z M 3.21875 10.640625 "/></g></g><g style="fill:#ffffff;fill-opacity:1;"><g transform="translate(1084.572095, 841.693047)"><path style="stroke:none" d="M 3.171875 10.5 C 2.546875 8.644531 2.34375 6.921875 2.5625 5.328125 C 2.78125 3.742188 3.375 2.378906 4.34375 1.234375 C 5.320312 0.0976562 6.609375 -0.734375 8.203125 -1.265625 C 10.304688 -1.984375 12.363281 -2.140625 14.375 -1.734375 C 16.394531 -1.335938 18.1875 -0.4375 19.75 0.96875 C 21.3125 2.382812 22.46875 4.21875 23.21875 6.46875 C 23.84375 8.320312 24.046875 10.039062 23.828125 11.625 C 23.617188 13.21875 23.023438 14.582031 22.046875 15.71875 C 21.066406 16.851562 19.785156 17.6875 18.203125 18.21875 C 16.097656 18.925781 14.039062 19.085938 12.03125 18.703125 C 10.019531 18.316406 8.226562 17.414062 6.65625 16 C 5.09375 14.582031 3.929688 12.75 3.171875 10.5 Z M 6.984375 9.65625 C 7.441406 11.019531 8.164062 12.101562 9.15625 12.90625 C 10.15625 13.707031 11.300781 14.195312 12.59375 14.375 C 13.882812 14.550781 15.1875 14.414062 16.5 13.96875 C 17.914062 13.5 18.894531 12.675781 19.4375 11.5 C 19.976562 10.320312 19.976562 8.929688 19.4375 7.328125 C 18.976562 5.960938 18.25 4.878906 17.25 4.078125 C 16.25 3.273438 15.109375 2.785156 13.828125 2.609375 C 12.546875 2.429688 11.238281 2.566406 9.90625 3.015625 C 8.488281 3.484375 7.507812 4.300781 6.96875 5.46875 C 6.425781 6.632812 6.429688 8.03125 6.984375 9.65625 Z M 6.984375 9.65625 "/></g></g><g style="fill:#ffffff;fill-opacity:1;"><g transform="translate(1092.125498, 864.081996)"><path style="stroke:none" d="M 27.125 19.125 L 7.328125 21.703125 L 5.953125 17.65625 L 17.71875 16.125 L 6.28125 12.09375 L 5.625 10.1875 L 13.515625 3.265625 L 1.625 4.796875 L 0.265625 0.765625 L 20.078125 -1.78125 L 21.25 1.71875 L 11.265625 10.265625 L 25.890625 15.4375 Z M 27.125 19.125 "/></g></g><g style="fill:#ffffff;fill-opacity:1;"><g transform="translate(1100.672299, 889.415463)"><path style="stroke:none" d="M 20.078125 -1.78125 L 21.53125 2.546875 L 1.71875 5.09375 L 0.265625 0.765625 Z M 20.078125 -1.78125 "/></g></g><g style="fill:#ffffff;fill-opacity:1;"><g transform="translate(1103.607746, 898.116385)"><path style="stroke:none" d="M 25.8125 15.25 L 6 17.796875 L 4.8125 14.265625 L 14.109375 3.421875 L 1.6875 5.015625 L 0.265625 0.765625 L 20.078125 -1.78125 L 21.28125 1.78125 L 11.96875 12.625 L 24.390625 11.015625 Z M 25.8125 15.25 "/></g></g><g style="fill:#ffffff;fill-opacity:1;"><g transform="translate(1110.838967, 919.550359)"><path style="stroke:none" d="M 14.71875 12.015625 L 16.046875 15.953125 L 7.890625 16.984375 C 6.847656 16.296875 5.921875 15.398438 5.109375 14.296875 C 4.296875 13.191406 3.664062 11.972656 3.21875 10.640625 C 2.59375 8.785156 2.382812 7.050781 2.59375 5.4375 C 2.8125 3.832031 3.398438 2.445312 4.359375 1.28125 C 5.328125 0.113281 6.609375 -0.734375 8.203125 -1.265625 C 10.304688 -1.984375 12.367188 -2.140625 14.390625 -1.734375 C 16.421875 -1.328125 18.21875 -0.40625 19.78125 1.03125 C 21.34375 2.476562 22.507812 4.351562 23.28125 6.65625 C 23.882812 8.414062 24.128906 10.039062 24.015625 11.53125 C 23.910156 13.03125 23.457031 14.347656 22.65625 15.484375 L 19.125 13.25 C 19.644531 12.394531 19.9375 11.519531 20 10.625 C 20.070312 9.738281 19.925781 8.765625 19.5625 7.703125 C 19.082031 6.285156 18.34375 5.144531 17.34375 4.28125 C 16.351562 3.414062 15.207031 2.867188 13.90625 2.640625 C 12.613281 2.421875 11.289062 2.539062 9.9375 3 C 8.5 3.476562 7.515625 4.320312 6.984375 5.53125 C 6.460938 6.75 6.492188 8.226562 7.078125 9.96875 C 7.453125 11.0625 8.023438 12.007812 8.796875 12.8125 Z M 14.71875 12.015625 "/></g></g><g style="fill:#ffffff;fill-opacity:1;"><g transform="translate(1117.739055, 940.002825)"><path style="stroke:none" d=""/></g></g><g style="fill:#ffffff;fill-opacity:1;"><g transform="translate(1120.271771, 947.510018)"><path style="stroke:none" d="M 2.109375 7.34375 C 1.617188 5.875 1.34375 4.398438 1.28125 2.921875 C 1.21875 1.453125 1.351562 0.210938 1.6875 -0.796875 L 5.578125 -0.15625 C 5.253906 0.882812 5.097656 1.992188 5.109375 3.171875 C 5.128906 4.359375 5.332031 5.507812 5.71875 6.625 C 6.113281 7.8125 6.625 8.679688 7.25 9.234375 C 7.875 9.785156 8.519531 9.953125 9.1875 9.734375 C 9.738281 9.546875 10.066406 9.128906 10.171875 8.484375 C 10.273438 7.835938 10.289062 6.851562 10.21875 5.53125 C 10.175781 4.207031 10.1875 3.109375 10.25 2.234375 C 10.320312 1.367188 10.59375 0.550781 11.0625 -0.21875 C 11.53125 -1 12.300781 -1.570312 13.375 -1.9375 C 14.632812 -2.363281 15.859375 -2.390625 17.046875 -2.015625 C 18.234375 -1.648438 19.300781 -0.910156 20.25 0.203125 C 21.195312 1.316406 21.957031 2.722656 22.53125 4.421875 C 22.957031 5.679688 23.21875 6.910156 23.3125 8.109375 C 23.414062 9.316406 23.347656 10.410156 23.109375 11.390625 L 19.265625 10.890625 C 19.523438 10.023438 19.625 9.117188 19.5625 8.171875 C 19.5 7.234375 19.3125 6.296875 19 5.359375 C 18.59375 4.140625 18.054688 3.242188 17.390625 2.671875 C 16.734375 2.109375 16.066406 1.941406 15.390625 2.171875 C 14.992188 2.304688 14.703125 2.566406 14.515625 2.953125 C 14.335938 3.347656 14.242188 3.804688 14.234375 4.328125 C 14.222656 4.847656 14.242188 5.5625 14.296875 6.46875 C 14.367188 7.769531 14.375 8.851562 14.3125 9.71875 C 14.25 10.59375 13.988281 11.398438 13.53125 12.140625 C 13.082031 12.890625 12.347656 13.441406 11.328125 13.796875 C 10.054688 14.222656 8.828125 14.238281 7.640625 13.84375 C 6.460938 13.457031 5.390625 12.707031 4.421875 11.59375 C 3.460938 10.476562 2.691406 9.0625 2.109375 7.34375 Z M 2.109375 7.34375 "/></g></g><g style="fill:#f4f3f3;fill-opacity:1;"><g transform="translate(94.500002, 614.426594)"><path style="stroke:none" d="M 38.09375 0.546875 C 31.78125 0.546875 26.082031 -0.847656 21 -3.640625 C 15.925781 -6.441406 11.945312 -10.316406 9.0625 -15.265625 C 6.175781 -20.210938 4.734375 -25.757812 4.734375 -31.90625 C 4.734375 -38.039062 6.175781 -43.582031 9.0625 -48.53125 C 11.945312 -53.476562 15.941406 -57.347656 21.046875 -60.140625 C 26.148438 -62.941406 31.863281 -64.34375 38.1875 -64.34375 C 42.925781 -64.34375 47.300781 -63.550781 51.3125 -61.96875 C 55.320312 -60.394531 58.722656 -58.085938 61.515625 -55.046875 L 57.234375 -50.765625 C 52.253906 -55.804688 45.96875 -58.328125 38.375 -58.328125 C 33.332031 -58.328125 28.742188 -57.171875 24.609375 -54.859375 C 20.472656 -52.554688 17.234375 -49.398438 14.890625 -45.390625 C 12.554688 -41.378906 11.390625 -36.882812 11.390625 -31.90625 C 11.390625 -26.914062 12.554688 -22.414062 14.890625 -18.40625 C 17.234375 -14.394531 20.472656 -11.234375 24.609375 -8.921875 C 28.742188 -6.617188 33.332031 -5.46875 38.375 -5.46875 C 46.03125 -5.46875 52.316406 -8.019531 57.234375 -13.125 L 61.515625 -8.84375 C 58.722656 -5.800781 55.304688 -3.472656 51.265625 -1.859375 C 47.222656 -0.253906 42.832031 0.546875 38.09375 0.546875 Z M 38.09375 0.546875 "/></g></g><g style="fill:#f4f3f3;fill-opacity:1;"><g transform="translate(160.027796, 614.426594)"><path style="stroke:none" d="M 38.28125 0.546875 C 31.957031 0.546875 26.226562 -0.863281 21.09375 -3.6875 C 15.957031 -6.507812 11.945312 -10.378906 9.0625 -15.296875 C 6.175781 -20.222656 4.734375 -25.757812 4.734375 -31.90625 C 4.734375 -38.039062 6.175781 -43.566406 9.0625 -48.484375 C 11.945312 -53.410156 15.957031 -57.285156 21.09375 -60.109375 C 26.226562 -62.929688 31.957031 -64.34375 38.28125 -64.34375 C 44.59375 -64.34375 50.285156 -62.941406 55.359375 -60.140625 C 60.441406 -57.347656 64.441406 -53.476562 67.359375 -48.53125 C 70.273438 -43.582031 71.734375 -38.039062 71.734375 -31.90625 C 71.734375 -25.757812 70.273438 -20.210938 67.359375 -15.265625 C 64.441406 -10.316406 60.441406 -6.441406 55.359375 -3.640625 C 50.285156 -0.847656 44.59375 0.546875 38.28125 0.546875 Z M 38.28125 -5.46875 C 43.320312 -5.46875 47.878906 -6.601562 51.953125 -8.875 C 56.023438 -11.15625 59.210938 -14.316406 61.515625 -18.359375 C 63.828125 -22.398438 64.984375 -26.914062 64.984375 -31.90625 C 64.984375 -36.882812 63.828125 -41.394531 61.515625 -45.4375 C 59.210938 -49.476562 56.023438 -52.632812 51.953125 -54.90625 C 47.878906 -57.1875 43.320312 -58.328125 38.28125 -58.328125 C 33.238281 -58.328125 28.664062 -57.1875 24.5625 -54.90625 C 20.457031 -52.632812 17.234375 -49.476562 14.890625 -45.4375 C 12.554688 -41.394531 11.390625 -36.882812 11.390625 -31.90625 C 11.390625 -26.914062 12.554688 -22.398438 14.890625 -18.359375 C 17.234375 -14.316406 20.457031 -11.15625 24.5625 -8.875 C 28.664062 -6.601562 33.238281 -5.46875 38.28125 -5.46875 Z M 38.28125 -5.46875 "/></g></g><g style="fill:#f4f3f3;fill-opacity:1;"><g transform="translate(236.492069, 614.426594)"><path style="stroke:none" d="M 76.65625 -63.796875 L 76.65625 0 L 70.171875 0 L 70.171875 -51.03125 L 45.109375 -8.109375 L 41.921875 -8.109375 L 16.859375 -50.765625 L 16.859375 0 L 10.390625 0 L 10.390625 -63.796875 L 15.953125 -63.796875 L 43.65625 -16.5 L 71.09375 -63.796875 Z M 76.65625 -63.796875 "/></g></g><g style="fill:#f4f3f3;fill-opacity:1;"><g transform="translate(323.528287, 614.426594)"><path style="stroke:none" d="M 10.390625 -63.796875 L 17.140625 -63.796875 L 17.140625 0 L 10.390625 0 Z M 10.390625 -63.796875 "/></g></g><g style="fill:#f4f3f3;fill-opacity:1;"><g transform="translate(351.051792, 614.426594)"><path style="stroke:none" d="M 63.703125 -63.796875 L 63.703125 0 L 58.140625 0 L 17.140625 -51.765625 L 17.140625 0 L 10.390625 0 L 10.390625 -63.796875 L 15.953125 -63.796875 L 57.046875 -12.03125 L 57.046875 -63.796875 Z M 63.703125 -63.796875 "/></g></g><g style="fill:#f4f3f3;fill-opacity:1;"><g transform="translate(425.146491, 614.426594)"><path style="stroke:none" d="M 55.328125 -31.90625 L 61.796875 -31.90625 L 61.796875 -7.5625 C 58.816406 -4.945312 55.289062 -2.941406 51.21875 -1.546875 C 47.144531 -0.148438 42.863281 0.546875 38.375 0.546875 C 31.988281 0.546875 26.242188 -0.847656 21.140625 -3.640625 C 16.035156 -6.441406 12.023438 -10.316406 9.109375 -15.265625 C 6.191406 -20.210938 4.734375 -25.757812 4.734375 -31.90625 C 4.734375 -38.039062 6.191406 -43.582031 9.109375 -48.53125 C 12.023438 -53.476562 16.035156 -57.347656 21.140625 -60.140625 C 26.242188 -62.941406 32.019531 -64.34375 38.46875 -64.34375 C 43.320312 -64.34375 47.785156 -63.566406 51.859375 -62.015625 C 55.929688 -60.472656 59.363281 -58.179688 62.15625 -55.140625 L 57.96875 -50.859375 C 52.925781 -55.835938 46.515625 -58.328125 38.734375 -58.328125 C 33.566406 -58.328125 28.898438 -57.1875 24.734375 -54.90625 C 20.578125 -52.632812 17.3125 -49.476562 14.9375 -45.4375 C 12.570312 -41.394531 11.390625 -36.882812 11.390625 -31.90625 C 11.390625 -26.914062 12.570312 -22.414062 14.9375 -18.40625 C 17.3125 -14.394531 20.5625 -11.234375 24.6875 -8.921875 C 28.820312 -6.617188 33.472656 -5.46875 38.640625 -5.46875 C 45.203125 -5.46875 50.765625 -7.109375 55.328125 -10.390625 Z M 55.328125 -31.90625 "/></g></g><g style="fill:#f4f3f3;fill-opacity:1;"><g transform="translate(495.59572, 614.426594)"><path style="stroke:none" d=""/></g></g><g style="fill:#f4f3f3;fill-opacity:1;"><g transform="translate(519.473719, 614.426594)"><path style="stroke:none" d="M 27.984375 0.546875 C 23.242188 0.546875 18.703125 -0.210938 14.359375 -1.734375 C 10.015625 -3.253906 6.65625 -5.257812 4.28125 -7.75 L 6.921875 -12.9375 C 9.234375 -10.632812 12.300781 -8.765625 16.125 -7.328125 C 19.957031 -5.898438 23.910156 -5.1875 27.984375 -5.1875 C 33.691406 -5.1875 37.972656 -6.234375 40.828125 -8.328125 C 43.679688 -10.429688 45.109375 -13.15625 45.109375 -16.5 C 45.109375 -19.050781 44.332031 -21.082031 42.78125 -22.59375 C 41.238281 -24.113281 39.34375 -25.285156 37.09375 -26.109375 C 34.84375 -26.929688 31.710938 -27.828125 27.703125 -28.796875 C 22.898438 -30.015625 19.070312 -31.1875 16.21875 -32.3125 C 13.363281 -33.4375 10.914062 -35.148438 8.875 -37.453125 C 6.84375 -39.765625 5.828125 -42.894531 5.828125 -46.84375 C 5.828125 -50.0625 6.675781 -52.992188 8.375 -55.640625 C 10.082031 -58.285156 12.695312 -60.394531 16.21875 -61.96875 C 19.75 -63.550781 24.125 -64.34375 29.34375 -64.34375 C 32.988281 -64.34375 36.554688 -63.84375 40.046875 -62.84375 C 43.546875 -61.84375 46.570312 -60.457031 49.125 -58.6875 L 46.84375 -53.3125 C 44.175781 -55.070312 41.320312 -56.394531 38.28125 -57.28125 C 35.238281 -58.164062 32.257812 -58.609375 29.34375 -58.609375 C 23.757812 -58.609375 19.550781 -57.523438 16.71875 -55.359375 C 13.894531 -53.203125 12.484375 -50.425781 12.484375 -47.03125 C 12.484375 -44.476562 13.257812 -42.425781 14.8125 -40.875 C 16.363281 -39.320312 18.304688 -38.132812 20.640625 -37.3125 C 22.984375 -36.5 26.128906 -35.609375 30.078125 -34.640625 C 34.753906 -33.484375 38.535156 -32.34375 41.421875 -31.21875 C 44.304688 -30.09375 46.75 -28.390625 48.75 -26.109375 C 50.757812 -23.828125 51.765625 -20.742188 51.765625 -16.859375 C 51.765625 -13.640625 50.898438 -10.707031 49.171875 -8.0625 C 47.441406 -5.414062 44.78125 -3.316406 41.1875 -1.765625 C 37.601562 -0.222656 33.203125 0.546875 27.984375 0.546875 Z M 27.984375 0.546875 "/></g></g><g style="fill:#f4f3f3;fill-opacity:1;"><g transform="translate(575.523211, 614.426594)"><path style="stroke:none" d="M 38.28125 0.546875 C 31.957031 0.546875 26.226562 -0.863281 21.09375 -3.6875 C 15.957031 -6.507812 11.945312 -10.378906 9.0625 -15.296875 C 6.175781 -20.222656 4.734375 -25.757812 4.734375 -31.90625 C 4.734375 -38.039062 6.175781 -43.566406 9.0625 -48.484375 C 11.945312 -53.410156 15.957031 -57.285156 21.09375 -60.109375 C 26.226562 -62.929688 31.957031 -64.34375 38.28125 -64.34375 C 44.59375 -64.34375 50.285156 -62.941406 55.359375 -60.140625 C 60.441406 -57.347656 64.441406 -53.476562 67.359375 -48.53125 C 70.273438 -43.582031 71.734375 -38.039062 71.734375 -31.90625 C 71.734375 -25.757812 70.273438 -20.210938 67.359375 -15.265625 C 64.441406 -10.316406 60.441406 -6.441406 55.359375 -3.640625 C 50.285156 -0.847656 44.59375 0.546875 38.28125 0.546875 Z M 38.28125 -5.46875 C 43.320312 -5.46875 47.878906 -6.601562 51.953125 -8.875 C 56.023438 -11.15625 59.210938 -14.316406 61.515625 -18.359375 C 63.828125 -22.398438 64.984375 -26.914062 64.984375 -31.90625 C 64.984375 -36.882812 63.828125 -41.394531 61.515625 -45.4375 C 59.210938 -49.476562 56.023438 -52.632812 51.953125 -54.90625 C 47.878906 -57.1875 43.320312 -58.328125 38.28125 -58.328125 C 33.238281 -58.328125 28.664062 -57.1875 24.5625 -54.90625 C 20.457031 -52.632812 17.234375 -49.476562 14.890625 -45.4375 C 12.554688 -41.394531 11.390625 -36.882812 11.390625 -31.90625 C 11.390625 -26.914062 12.554688 -22.398438 14.890625 -18.359375 C 17.234375 -14.316406 20.457031 -11.15625 24.5625 -8.875 C 28.664062 -6.601562 33.238281 -5.46875 38.28125 -5.46875 Z M 38.28125 -5.46875 "/></g></g><g style="fill:#f4f3f3;fill-opacity:1;"><g transform="translate(651.987484, 614.426594)"><path style="stroke:none" d="M 38.28125 0.546875 C 31.957031 0.546875 26.226562 -0.863281 21.09375 -3.6875 C 15.957031 -6.507812 11.945312 -10.378906 9.0625 -15.296875 C 6.175781 -20.222656 4.734375 -25.757812 4.734375 -31.90625 C 4.734375 -38.039062 6.175781 -43.566406 9.0625 -48.484375 C 11.945312 -53.410156 15.957031 -57.285156 21.09375 -60.109375 C 26.226562 -62.929688 31.957031 -64.34375 38.28125 -64.34375 C 44.59375 -64.34375 50.285156 -62.941406 55.359375 -60.140625 C 60.441406 -57.347656 64.441406 -53.476562 67.359375 -48.53125 C 70.273438 -43.582031 71.734375 -38.039062 71.734375 -31.90625 C 71.734375 -25.757812 70.273438 -20.210938 67.359375 -15.265625 C 64.441406 -10.316406 60.441406 -6.441406 55.359375 -3.640625 C 50.285156 -0.847656 44.59375 0.546875 38.28125 0.546875 Z M 38.28125 -5.46875 C 43.320312 -5.46875 47.878906 -6.601562 51.953125 -8.875 C 56.023438 -11.15625 59.210938 -14.316406 61.515625 -18.359375 C 63.828125 -22.398438 64.984375 -26.914062 64.984375 -31.90625 C 64.984375 -36.882812 63.828125 -41.394531 61.515625 -45.4375 C 59.210938 -49.476562 56.023438 -52.632812 51.953125 -54.90625 C 47.878906 -57.1875 43.320312 -58.328125 38.28125 -58.328125 C 33.238281 -58.328125 28.664062 -57.1875 24.5625 -54.90625 C 20.457031 -52.632812 17.234375 -49.476562 14.890625 -45.4375 C 12.554688 -41.394531 11.390625 -36.882812 11.390625 -31.90625 C 11.390625 -26.914062 12.554688 -22.398438 14.890625 -18.359375 C 17.234375 -14.316406 20.457031 -11.15625 24.5625 -8.875 C 28.664062 -6.601562 33.238281 -5.46875 38.28125 -5.46875 Z M 38.28125 -5.46875 "/></g></g><g style="fill:#f4f3f3;fill-opacity:1;"><g transform="translate(728.451721, 614.426594)"><path style="stroke:none" d="M 63.703125 -63.796875 L 63.703125 0 L 58.140625 0 L 17.140625 -51.765625 L 17.140625 0 L 10.390625 0 L 10.390625 -63.796875 L 15.953125 -63.796875 L 57.046875 -12.03125 L 57.046875 -63.796875 Z M 63.703125 -63.796875 "/></g></g></g></svg>